<?xml version="1.0" encoding="utf-8" standalone="no"?>
<!DOCTYPE svg PUBLIC "-//W3C//DTD SVG 1.1//EN"
  "http://www.w3.org/Graphics/SVG/1.1/DTD/svg11.dtd">
<!-- Created with matplotlib (https://matplotlib.org/) -->
<svg height="355.72175pt" version="1.1" viewBox="0 0 455.225 355.72175" width="455.225pt" xmlns="http://www.w3.org/2000/svg" xmlns:xlink="http://www.w3.org/1999/xlink">
 <metadata>
  <rdf:RDF xmlns:cc="http://creativecommons.org/ns#" xmlns:dc="http://purl.org/dc/elements/1.1/" xmlns:rdf="http://www.w3.org/1999/02/22-rdf-syntax-ns#">
   <cc:Work>
    <dc:type rdf:resource="http://purl.org/dc/dcmitype/StillImage"/>
    <dc:date>2021-04-27T15:57:44.832842</dc:date>
    <dc:format>image/svg+xml</dc:format>
    <dc:creator>
     <cc:Agent>
      <dc:title>Matplotlib v3.3.4, https://matplotlib.org/</dc:title>
     </cc:Agent>
    </dc:creator>
   </cc:Work>
  </rdf:RDF>
 </metadata>
 <defs>
  <style type="text/css">*{stroke-linecap:butt;stroke-linejoin:round;}</style>
 </defs>
 <g id="figure_1">
  <g id="patch_1">
   <path d="M 0 355.72175 
L 455.225 355.72175 
L 455.225 0 
L 0 0 
z
" style="fill:#ffffff;"/>
  </g>
  <g id="axes_1">
   <g id="patch_2">
    <path d="M 7.2 331.971 
L 446.025 331.971 
L 446.025 28.25 
L 7.2 28.25 
z
" style="fill:#ffffff;"/>
   </g>
   <g id="matplotlib.axis_1">
    <g id="xtick_1">
     <g id="line2d_1">
      <defs>
       <path d="M 0 0 
L 0 3.5 
" id="m86c0555ef1" style="stroke:#000000;stroke-width:0.8;"/>
      </defs>
      <g>
       <use style="stroke:#000000;stroke-width:0.8;" x="67.039773" xlink:href="#m86c0555ef1" y="318.1655"/>
      </g>
     </g>
     <g id="text_1">
      <!-- −4 -->
      <g transform="translate(59.668679 332.763937)scale(0.1 -0.1)">
       <defs>
        <path d="M 10.59375 35.5 
L 73.1875 35.5 
L 73.1875 27.203125 
L 10.59375 27.203125 
z
" id="DejaVuSans-8722"/>
        <path d="M 37.796875 64.3125 
L 12.890625 25.390625 
L 37.796875 25.390625 
z
M 35.203125 72.90625 
L 47.609375 72.90625 
L 47.609375 25.390625 
L 58.015625 25.390625 
L 58.015625 17.1875 
L 47.609375 17.1875 
L 47.609375 0 
L 37.796875 0 
L 37.796875 17.1875 
L 4.890625 17.1875 
L 4.890625 26.703125 
z
" id="DejaVuSans-52"/>
       </defs>
       <use xlink:href="#DejaVuSans-8722"/>
       <use x="83.789062" xlink:href="#DejaVuSans-52"/>
      </g>
     </g>
    </g>
    <g id="xtick_2">
     <g id="line2d_2">
      <g>
       <use style="stroke:#000000;stroke-width:0.8;" x="146.826136" xlink:href="#m86c0555ef1" y="318.1655"/>
      </g>
     </g>
     <g id="text_2">
      <!-- −2 -->
      <g transform="translate(139.455043 332.763937)scale(0.1 -0.1)">
       <defs>
        <path d="M 19.1875 8.296875 
L 53.609375 8.296875 
L 53.609375 0 
L 7.328125 0 
L 7.328125 8.296875 
Q 12.9375 14.109375 22.625 23.890625 
Q 32.328125 33.6875 34.8125 36.53125 
Q 39.546875 41.84375 41.421875 45.53125 
Q 43.3125 49.21875 43.3125 52.78125 
Q 43.3125 58.59375 39.234375 62.25 
Q 35.15625 65.921875 28.609375 65.921875 
Q 23.96875 65.921875 18.8125 64.3125 
Q 13.671875 62.703125 7.8125 59.421875 
L 7.8125 69.390625 
Q 13.765625 71.78125 18.9375 73 
Q 24.125 74.21875 28.421875 74.21875 
Q 39.75 74.21875 46.484375 68.546875 
Q 53.21875 62.890625 53.21875 53.421875 
Q 53.21875 48.921875 51.53125 44.890625 
Q 49.859375 40.875 45.40625 35.40625 
Q 44.1875 33.984375 37.640625 27.21875 
Q 31.109375 20.453125 19.1875 8.296875 
z
" id="DejaVuSans-50"/>
       </defs>
       <use xlink:href="#DejaVuSans-8722"/>
       <use x="83.789062" xlink:href="#DejaVuSans-50"/>
      </g>
     </g>
    </g>
    <g id="xtick_3">
     <g id="line2d_3">
      <g>
       <use style="stroke:#000000;stroke-width:0.8;" x="226.6125" xlink:href="#m86c0555ef1" y="318.1655"/>
      </g>
     </g>
     <g id="text_3">
      <!-- 0 -->
      <g transform="translate(223.43125 332.763937)scale(0.1 -0.1)">
       <defs>
        <path d="M 31.78125 66.40625 
Q 24.171875 66.40625 20.328125 58.90625 
Q 16.5 51.421875 16.5 36.375 
Q 16.5 21.390625 20.328125 13.890625 
Q 24.171875 6.390625 31.78125 6.390625 
Q 39.453125 6.390625 43.28125 13.890625 
Q 47.125 21.390625 47.125 36.375 
Q 47.125 51.421875 43.28125 58.90625 
Q 39.453125 66.40625 31.78125 66.40625 
z
M 31.78125 74.21875 
Q 44.046875 74.21875 50.515625 64.515625 
Q 56.984375 54.828125 56.984375 36.375 
Q 56.984375 17.96875 50.515625 8.265625 
Q 44.046875 -1.421875 31.78125 -1.421875 
Q 19.53125 -1.421875 13.0625 8.265625 
Q 6.59375 17.96875 6.59375 36.375 
Q 6.59375 54.828125 13.0625 64.515625 
Q 19.53125 74.21875 31.78125 74.21875 
z
" id="DejaVuSans-48"/>
       </defs>
       <use xlink:href="#DejaVuSans-48"/>
      </g>
     </g>
    </g>
    <g id="xtick_4">
     <g id="line2d_4">
      <g>
       <use style="stroke:#000000;stroke-width:0.8;" x="306.398864" xlink:href="#m86c0555ef1" y="318.1655"/>
      </g>
     </g>
     <g id="text_4">
      <!-- 2 -->
      <g transform="translate(303.217614 332.763937)scale(0.1 -0.1)">
       <use xlink:href="#DejaVuSans-50"/>
      </g>
     </g>
    </g>
    <g id="xtick_5">
     <g id="line2d_5">
      <g>
       <use style="stroke:#000000;stroke-width:0.8;" x="386.185227" xlink:href="#m86c0555ef1" y="318.1655"/>
      </g>
     </g>
     <g id="text_5">
      <!-- 4 -->
      <g transform="translate(383.003977 332.763937)scale(0.1 -0.1)">
       <use xlink:href="#DejaVuSans-52"/>
      </g>
     </g>
    </g>
    <g id="text_6">
     <!-- $t$ -->
     <g transform="translate(444.025 346.442062)scale(0.1 -0.1)">
      <defs>
       <path d="M 42.28125 54.6875 
L 40.921875 47.703125 
L 23 47.703125 
L 17.1875 18.015625 
Q 16.890625 16.359375 16.75 15.234375 
Q 16.609375 14.109375 16.609375 13.484375 
Q 16.609375 10.359375 18.484375 8.9375 
Q 20.359375 7.515625 24.515625 7.515625 
L 33.59375 7.515625 
L 32.078125 0 
L 23.484375 0 
Q 15.484375 0 11.546875 3.125 
Q 7.625 6.25 7.625 12.59375 
Q 7.625 13.71875 7.765625 15.0625 
Q 7.90625 16.40625 8.203125 18.015625 
L 14.015625 47.703125 
L 6.390625 47.703125 
L 7.8125 54.6875 
L 15.28125 54.6875 
L 18.3125 70.21875 
L 27.296875 70.21875 
L 24.3125 54.6875 
z
" id="DejaVuSans-Oblique-116"/>
      </defs>
      <use transform="translate(0 0.78125)" xlink:href="#DejaVuSans-Oblique-116"/>
     </g>
    </g>
   </g>
   <g id="matplotlib.axis_2">
    <g id="ytick_1">
     <g id="line2d_6">
      <defs>
       <path d="M 0 0 
L -3.5 0 
" id="maeae168ba1" style="stroke:#000000;stroke-width:0.8;"/>
      </defs>
      <g>
       <use style="stroke:#000000;stroke-width:0.8;" x="226.6125" xlink:href="#maeae168ba1" y="318.1655"/>
      </g>
     </g>
     <g id="text_7">
      <!-- 0.0 -->
      <g transform="translate(203.709375 321.964719)scale(0.1 -0.1)">
       <defs>
        <path d="M 10.6875 12.40625 
L 21 12.40625 
L 21 0 
L 10.6875 0 
z
" id="DejaVuSans-46"/>
       </defs>
       <use xlink:href="#DejaVuSans-48"/>
       <use x="63.623047" xlink:href="#DejaVuSans-46"/>
       <use x="95.410156" xlink:href="#DejaVuSans-48"/>
      </g>
     </g>
    </g>
    <g id="ytick_2">
     <g id="line2d_7">
      <g>
       <use style="stroke:#000000;stroke-width:0.8;" x="226.6125" xlink:href="#maeae168ba1" y="262.929953"/>
      </g>
     </g>
     <g id="text_8">
      <!-- 0.2 -->
      <g transform="translate(203.709375 266.729172)scale(0.1 -0.1)">
       <use xlink:href="#DejaVuSans-48"/>
       <use x="63.623047" xlink:href="#DejaVuSans-46"/>
       <use x="95.410156" xlink:href="#DejaVuSans-50"/>
      </g>
     </g>
    </g>
    <g id="ytick_3">
     <g id="line2d_8">
      <g>
       <use style="stroke:#000000;stroke-width:0.8;" x="226.6125" xlink:href="#maeae168ba1" y="207.694407"/>
      </g>
     </g>
     <g id="text_9">
      <!-- 0.4 -->
      <g transform="translate(203.709375 211.493626)scale(0.1 -0.1)">
       <use xlink:href="#DejaVuSans-48"/>
       <use x="63.623047" xlink:href="#DejaVuSans-46"/>
       <use x="95.410156" xlink:href="#DejaVuSans-52"/>
      </g>
     </g>
    </g>
    <g id="ytick_4">
     <g id="line2d_9">
      <g>
       <use style="stroke:#000000;stroke-width:0.8;" x="226.6125" xlink:href="#maeae168ba1" y="152.45886"/>
      </g>
     </g>
     <g id="text_10">
      <!-- 0.6 -->
      <g transform="translate(203.709375 156.258079)scale(0.1 -0.1)">
       <defs>
        <path d="M 33.015625 40.375 
Q 26.375 40.375 22.484375 35.828125 
Q 18.609375 31.296875 18.609375 23.390625 
Q 18.609375 15.53125 22.484375 10.953125 
Q 26.375 6.390625 33.015625 6.390625 
Q 39.65625 6.390625 43.53125 10.953125 
Q 47.40625 15.53125 47.40625 23.390625 
Q 47.40625 31.296875 43.53125 35.828125 
Q 39.65625 40.375 33.015625 40.375 
z
M 52.59375 71.296875 
L 52.59375 62.3125 
Q 48.875 64.0625 45.09375 64.984375 
Q 41.3125 65.921875 37.59375 65.921875 
Q 27.828125 65.921875 22.671875 59.328125 
Q 17.53125 52.734375 16.796875 39.40625 
Q 19.671875 43.65625 24.015625 45.921875 
Q 28.375 48.1875 33.59375 48.1875 
Q 44.578125 48.1875 50.953125 41.515625 
Q 57.328125 34.859375 57.328125 23.390625 
Q 57.328125 12.15625 50.6875 5.359375 
Q 44.046875 -1.421875 33.015625 -1.421875 
Q 20.359375 -1.421875 13.671875 8.265625 
Q 6.984375 17.96875 6.984375 36.375 
Q 6.984375 53.65625 15.1875 63.9375 
Q 23.390625 74.21875 37.203125 74.21875 
Q 40.921875 74.21875 44.703125 73.484375 
Q 48.484375 72.75 52.59375 71.296875 
z
" id="DejaVuSans-54"/>
       </defs>
       <use xlink:href="#DejaVuSans-48"/>
       <use x="63.623047" xlink:href="#DejaVuSans-46"/>
       <use x="95.410156" xlink:href="#DejaVuSans-54"/>
      </g>
     </g>
    </g>
    <g id="ytick_5">
     <g id="line2d_10">
      <g>
       <use style="stroke:#000000;stroke-width:0.8;" x="226.6125" xlink:href="#maeae168ba1" y="97.223314"/>
      </g>
     </g>
     <g id="text_11">
      <!-- 0.8 -->
      <g transform="translate(203.709375 101.022532)scale(0.1 -0.1)">
       <defs>
        <path d="M 31.78125 34.625 
Q 24.75 34.625 20.71875 30.859375 
Q 16.703125 27.09375 16.703125 20.515625 
Q 16.703125 13.921875 20.71875 10.15625 
Q 24.75 6.390625 31.78125 6.390625 
Q 38.8125 6.390625 42.859375 10.171875 
Q 46.921875 13.96875 46.921875 20.515625 
Q 46.921875 27.09375 42.890625 30.859375 
Q 38.875 34.625 31.78125 34.625 
z
M 21.921875 38.8125 
Q 15.578125 40.375 12.03125 44.71875 
Q 8.5 49.078125 8.5 55.328125 
Q 8.5 64.0625 14.71875 69.140625 
Q 20.953125 74.21875 31.78125 74.21875 
Q 42.671875 74.21875 48.875 69.140625 
Q 55.078125 64.0625 55.078125 55.328125 
Q 55.078125 49.078125 51.53125 44.71875 
Q 48 40.375 41.703125 38.8125 
Q 48.828125 37.15625 52.796875 32.3125 
Q 56.78125 27.484375 56.78125 20.515625 
Q 56.78125 9.90625 50.3125 4.234375 
Q 43.84375 -1.421875 31.78125 -1.421875 
Q 19.734375 -1.421875 13.25 4.234375 
Q 6.78125 9.90625 6.78125 20.515625 
Q 6.78125 27.484375 10.78125 32.3125 
Q 14.796875 37.15625 21.921875 38.8125 
z
M 18.3125 54.390625 
Q 18.3125 48.734375 21.84375 45.5625 
Q 25.390625 42.390625 31.78125 42.390625 
Q 38.140625 42.390625 41.71875 45.5625 
Q 45.3125 48.734375 45.3125 54.390625 
Q 45.3125 60.0625 41.71875 63.234375 
Q 38.140625 66.40625 31.78125 66.40625 
Q 25.390625 66.40625 21.84375 63.234375 
Q 18.3125 60.0625 18.3125 54.390625 
z
" id="DejaVuSans-56"/>
       </defs>
       <use xlink:href="#DejaVuSans-48"/>
       <use x="63.623047" xlink:href="#DejaVuSans-46"/>
       <use x="95.410156" xlink:href="#DejaVuSans-56"/>
      </g>
     </g>
    </g>
    <g id="ytick_6">
     <g id="line2d_11">
      <g>
       <use style="stroke:#000000;stroke-width:0.8;" x="226.6125" xlink:href="#maeae168ba1" y="41.987767"/>
      </g>
     </g>
     <g id="text_12">
      <!-- 1.0 -->
      <g transform="translate(203.709375 45.786986)scale(0.1 -0.1)">
       <defs>
        <path d="M 12.40625 8.296875 
L 28.515625 8.296875 
L 28.515625 63.921875 
L 10.984375 60.40625 
L 10.984375 69.390625 
L 28.421875 72.90625 
L 38.28125 72.90625 
L 38.28125 8.296875 
L 54.390625 8.296875 
L 54.390625 0 
L 12.40625 0 
z
" id="DejaVuSans-49"/>
       </defs>
       <use xlink:href="#DejaVuSans-49"/>
       <use x="63.623047" xlink:href="#DejaVuSans-46"/>
       <use x="95.410156" xlink:href="#DejaVuSans-48"/>
      </g>
     </g>
    </g>
    <g id="text_13">
     <!-- $h(t)$, $x(t)$ -->
     <g transform="translate(197.629687 49.3)rotate(-90)scale(0.1 -0.1)">
      <defs>
       <path d="M 55.71875 33.015625 
L 49.3125 0 
L 40.28125 0 
L 46.6875 32.671875 
Q 47.125 34.96875 47.359375 36.71875 
Q 47.609375 38.484375 47.609375 39.5 
Q 47.609375 43.609375 45.015625 45.890625 
Q 42.4375 48.1875 37.796875 48.1875 
Q 30.5625 48.1875 25.265625 43.296875 
Q 19.96875 38.421875 18.40625 30.328125 
L 12.5 0 
L 3.515625 0 
L 18.3125 75.984375 
L 27.296875 75.984375 
L 21.484375 46.09375 
Q 24.90625 50.6875 30.21875 53.34375 
Q 35.546875 56 41.40625 56 
Q 48.640625 56 52.609375 52.09375 
Q 56.59375 48.1875 56.59375 41.109375 
Q 56.59375 39.359375 56.375 37.359375 
Q 56.15625 35.359375 55.71875 33.015625 
z
" id="DejaVuSans-Oblique-104"/>
       <path d="M 31 75.875 
Q 24.46875 64.65625 21.28125 53.65625 
Q 18.109375 42.671875 18.109375 31.390625 
Q 18.109375 20.125 21.3125 9.0625 
Q 24.515625 -2 31 -13.1875 
L 23.1875 -13.1875 
Q 15.875 -1.703125 12.234375 9.375 
Q 8.59375 20.453125 8.59375 31.390625 
Q 8.59375 42.28125 12.203125 53.3125 
Q 15.828125 64.359375 23.1875 75.875 
z
" id="DejaVuSans-40"/>
       <path d="M 8.015625 75.875 
L 15.828125 75.875 
Q 23.140625 64.359375 26.78125 53.3125 
Q 30.421875 42.28125 30.421875 31.390625 
Q 30.421875 20.453125 26.78125 9.375 
Q 23.140625 -1.703125 15.828125 -13.1875 
L 8.015625 -13.1875 
Q 14.5 -2 17.703125 9.0625 
Q 20.90625 20.125 20.90625 31.390625 
Q 20.90625 42.671875 17.703125 53.65625 
Q 14.5 64.65625 8.015625 75.875 
z
" id="DejaVuSans-41"/>
       <path d="M 11.71875 12.40625 
L 22.015625 12.40625 
L 22.015625 4 
L 14.015625 -11.625 
L 7.71875 -11.625 
L 11.71875 4 
z
" id="DejaVuSans-44"/>
       <path id="DejaVuSans-32"/>
       <path d="M 60.015625 54.6875 
L 34.90625 27.875 
L 50.296875 0 
L 39.984375 0 
L 28.421875 21.6875 
L 8.296875 0 
L -2.59375 0 
L 24.3125 28.8125 
L 10.015625 54.6875 
L 20.3125 54.6875 
L 30.8125 34.90625 
L 49.125 54.6875 
z
" id="DejaVuSans-Oblique-120"/>
      </defs>
      <use transform="translate(0 0.015625)" xlink:href="#DejaVuSans-Oblique-104"/>
      <use transform="translate(63.378906 0.015625)" xlink:href="#DejaVuSans-40"/>
      <use transform="translate(102.392578 0.015625)" xlink:href="#DejaVuSans-Oblique-116"/>
      <use transform="translate(141.601562 0.015625)" xlink:href="#DejaVuSans-41"/>
      <use transform="translate(180.615234 0.015625)" xlink:href="#DejaVuSans-44"/>
      <use transform="translate(212.402344 0.015625)" xlink:href="#DejaVuSans-32"/>
      <use transform="translate(244.189453 0.015625)" xlink:href="#DejaVuSans-Oblique-120"/>
      <use transform="translate(303.369141 0.015625)" xlink:href="#DejaVuSans-40"/>
      <use transform="translate(342.382812 0.015625)" xlink:href="#DejaVuSans-Oblique-116"/>
      <use transform="translate(381.591797 0.015625)" xlink:href="#DejaVuSans-41"/>
     </g>
    </g>
   </g>
   <g id="LineCollection_1">
    <path clip-path="url(#peb74acc0b5)" d="M 27.146591 318.1655 
L 32.516482 318.1655 
" style="fill:none;stroke:#1f77b4;stroke-width:1.5;"/>
    <path clip-path="url(#peb74acc0b5)" d="M 32.516482 318.1655 
L 38.66643 318.1655 
" style="fill:none;stroke:#1f77b4;stroke-width:1.5;"/>
    <path clip-path="url(#peb74acc0b5)" d="M 38.66643 318.1655 
L 44.070869 318.1655 
" style="fill:none;stroke:#1f77b4;stroke-width:1.5;"/>
    <path clip-path="url(#peb74acc0b5)" d="M 44.070869 318.1655 
L 50.249854 318.1655 
" style="fill:none;stroke:#1f77b4;stroke-width:1.5;"/>
    <path clip-path="url(#peb74acc0b5)" d="M 50.249854 318.1655 
L 57.076351 318.1655 
" style="fill:none;stroke:#1f77b4;stroke-width:1.5;"/>
    <path clip-path="url(#peb74acc0b5)" d="M 57.076351 318.1655 
L 63.588791 318.1655 
" style="fill:none;stroke:#1f77b4;stroke-width:1.5;"/>
    <path clip-path="url(#peb74acc0b5)" d="M 63.588791 318.1655 
L 68.642896 318.1655 
" style="fill:none;stroke:#1f77b4;stroke-width:1.5;"/>
    <path clip-path="url(#peb74acc0b5)" d="M 68.642896 318.1655 
L 74.643585 318.1655 
" style="fill:none;stroke:#1f77b4;stroke-width:1.5;"/>
    <path clip-path="url(#peb74acc0b5)" d="M 74.643585 318.1655 
L 80.687327 318.1655 
" style="fill:none;stroke:#1f77b4;stroke-width:1.5;"/>
    <path clip-path="url(#peb74acc0b5)" d="M 80.687327 318.1655 
L 87.978773 318.1655 
" style="fill:none;stroke:#1f77b4;stroke-width:1.5;"/>
    <path clip-path="url(#peb74acc0b5)" d="M 87.978773 318.1655 
L 95.127906 318.1655 
" style="fill:none;stroke:#1f77b4;stroke-width:1.5;"/>
    <path clip-path="url(#peb74acc0b5)" d="M 95.127906 318.1655 
L 101.104966 318.1655 
" style="fill:none;stroke:#1f77b4;stroke-width:1.5;"/>
    <path clip-path="url(#peb74acc0b5)" d="M 101.104966 318.1655 
L 106.458636 318.1655 
" style="fill:none;stroke:#1f77b4;stroke-width:1.5;"/>
    <path clip-path="url(#peb74acc0b5)" d="M 106.458636 318.1655 
L 112.516598 318.1655 
" style="fill:none;stroke:#1f77b4;stroke-width:1.5;"/>
    <path clip-path="url(#peb74acc0b5)" d="M 112.516598 318.1655 
L 119.094394 318.1655 
" style="fill:none;stroke:#1f77b4;stroke-width:1.5;"/>
    <path clip-path="url(#peb74acc0b5)" d="M 119.094394 318.1655 
L 125.115918 318.1655 
" style="fill:none;stroke:#1f77b4;stroke-width:1.5;"/>
    <path clip-path="url(#peb74acc0b5)" d="M 125.115918 318.1655 
L 130.662834 318.1655 
" style="fill:none;stroke:#1f77b4;stroke-width:1.5;"/>
    <path clip-path="url(#peb74acc0b5)" d="M 130.662834 318.1655 
L 136.645857 318.1655 
" style="fill:none;stroke:#1f77b4;stroke-width:1.5;"/>
    <path clip-path="url(#peb74acc0b5)" d="M 136.645857 318.1655 
L 143.38087 318.1655 
" style="fill:none;stroke:#1f77b4;stroke-width:1.5;"/>
    <path clip-path="url(#peb74acc0b5)" d="M 143.38087 318.1655 
L 149.562758 318.1655 
" style="fill:none;stroke:#1f77b4;stroke-width:1.5;"/>
    <path clip-path="url(#peb74acc0b5)" d="M 149.562758 318.1655 
L 154.662212 318.1655 
" style="fill:none;stroke:#1f77b4;stroke-width:1.5;"/>
    <path clip-path="url(#peb74acc0b5)" d="M 154.662212 318.1655 
L 159.973356 318.1655 
" style="fill:none;stroke:#1f77b4;stroke-width:1.5;"/>
    <path clip-path="url(#peb74acc0b5)" d="M 159.973356 318.1655 
L 164.90046 318.1655 
" style="fill:none;stroke:#1f77b4;stroke-width:1.5;"/>
    <path clip-path="url(#peb74acc0b5)" d="M 164.90046 318.1655 
L 170.429282 318.1655 
" style="fill:none;stroke:#1f77b4;stroke-width:1.5;"/>
    <path clip-path="url(#peb74acc0b5)" d="M 170.429282 318.1655 
L 175.499167 318.1655 
" style="fill:none;stroke:#1f77b4;stroke-width:1.5;"/>
    <path clip-path="url(#peb74acc0b5)" d="M 175.499167 318.1655 
L 180.821969 318.1655 
" style="fill:none;stroke:#1f77b4;stroke-width:1.5;"/>
    <path clip-path="url(#peb74acc0b5)" d="M 180.821969 318.1655 
L 186.54082 318.1655 
" style="fill:none;stroke:#1f77b4;stroke-width:1.5;"/>
    <path clip-path="url(#peb74acc0b5)" d="M 186.54082 318.1655 
L 192.565481 318.1655 
" style="fill:none;stroke:#1f77b4;stroke-width:1.5;"/>
    <path clip-path="url(#peb74acc0b5)" d="M 192.565481 318.1655 
L 197.373436 318.1655 
" style="fill:none;stroke:#1f77b4;stroke-width:1.5;"/>
    <path clip-path="url(#peb74acc0b5)" d="M 197.373436 318.1655 
L 201.372829 318.1655 
" style="fill:none;stroke:#1f77b4;stroke-width:1.5;"/>
    <path clip-path="url(#peb74acc0b5)" d="M 201.372829 318.1655 
L 205.747239 318.1655 
" style="fill:none;stroke:#1f77b4;stroke-width:1.5;"/>
    <path clip-path="url(#peb74acc0b5)" d="M 205.747239 318.1655 
L 210.704994 318.1655 
" style="fill:none;stroke:#1f77b4;stroke-width:1.5;"/>
    <path clip-path="url(#peb74acc0b5)" d="M 210.704994 318.1655 
L 217.246547 318.1655 
" style="fill:none;stroke:#1f77b4;stroke-width:1.5;"/>
    <path clip-path="url(#peb74acc0b5)" d="M 217.246547 318.1655 
L 224.790384 318.1655 
" style="fill:none;stroke:#1f77b4;stroke-width:1.5;"/>
    <path clip-path="url(#peb74acc0b5)" d="M 224.790384 318.1655 
L 226.547932 318.1655 
" style="fill:none;stroke:#1f77b4;stroke-width:1.5;"/>
    <path clip-path="url(#peb74acc0b5)" d="M 226.547932 318.1655 
L 226.610436 318.1655 
" style="fill:none;stroke:#1f77b4;stroke-width:1.5;"/>
    <path clip-path="url(#peb74acc0b5)" d="M 226.610436 318.1655 
L 226.678912 111.0322 
" style="fill:none;stroke:#1f77b4;stroke-width:1.5;"/>
    <path clip-path="url(#peb74acc0b5)" d="M 226.678912 111.0322 
L 226.79077 111.0322 
" style="fill:none;stroke:#1f77b4;stroke-width:1.5;"/>
    <path clip-path="url(#peb74acc0b5)" d="M 226.79077 111.0322 
L 226.990741 111.0322 
" style="fill:none;stroke:#1f77b4;stroke-width:1.5;"/>
    <path clip-path="url(#peb74acc0b5)" d="M 226.990741 111.0322 
L 227.455869 111.0322 
" style="fill:none;stroke:#1f77b4;stroke-width:1.5;"/>
    <path clip-path="url(#peb74acc0b5)" d="M 227.455869 111.0322 
L 228.255861 111.0322 
" style="fill:none;stroke:#1f77b4;stroke-width:1.5;"/>
    <path clip-path="url(#peb74acc0b5)" d="M 228.255861 111.0322 
L 232.072191 111.0322 
" style="fill:none;stroke:#1f77b4;stroke-width:1.5;"/>
    <path clip-path="url(#peb74acc0b5)" d="M 232.072191 111.0322 
L 239.323166 111.0322 
" style="fill:none;stroke:#1f77b4;stroke-width:1.5;"/>
    <path clip-path="url(#peb74acc0b5)" d="M 239.323166 111.0322 
L 246.440757 111.0322 
" style="fill:none;stroke:#1f77b4;stroke-width:1.5;"/>
    <path clip-path="url(#peb74acc0b5)" d="M 246.440757 111.0322 
L 253.760561 111.0322 
" style="fill:none;stroke:#1f77b4;stroke-width:1.5;"/>
    <path clip-path="url(#peb74acc0b5)" d="M 253.760561 111.0322 
L 260.865203 111.0322 
" style="fill:none;stroke:#1f77b4;stroke-width:1.5;"/>
    <path clip-path="url(#peb74acc0b5)" d="M 260.865203 111.0322 
L 264.223126 111.0322 
" style="fill:none;stroke:#1f77b4;stroke-width:1.5;"/>
    <path clip-path="url(#peb74acc0b5)" d="M 264.223126 111.0322 
L 265.670989 111.0322 
" style="fill:none;stroke:#1f77b4;stroke-width:1.5;"/>
    <path clip-path="url(#peb74acc0b5)" d="M 265.670989 111.0322 
L 266.30758 111.0322 
" style="fill:none;stroke:#1f77b4;stroke-width:1.5;"/>
    <path clip-path="url(#peb74acc0b5)" d="M 266.30758 111.0322 
L 266.490642 111.0322 
" style="fill:none;stroke:#1f77b4;stroke-width:1.5;"/>
    <path clip-path="url(#peb74acc0b5)" d="M 266.490642 111.0322 
L 266.533805 318.1655 
" style="fill:none;stroke:#1f77b4;stroke-width:1.5;"/>
    <path clip-path="url(#peb74acc0b5)" d="M 266.533805 318.1655 
L 266.58446 318.1655 
" style="fill:none;stroke:#1f77b4;stroke-width:1.5;"/>
    <path clip-path="url(#peb74acc0b5)" d="M 266.58446 318.1655 
L 266.691129 318.1655 
" style="fill:none;stroke:#1f77b4;stroke-width:1.5;"/>
    <path clip-path="url(#peb74acc0b5)" d="M 266.691129 318.1655 
L 267.00967 318.1655 
" style="fill:none;stroke:#1f77b4;stroke-width:1.5;"/>
    <path clip-path="url(#peb74acc0b5)" d="M 267.00967 318.1655 
L 271.96866 318.1655 
" style="fill:none;stroke:#1f77b4;stroke-width:1.5;"/>
    <path clip-path="url(#peb74acc0b5)" d="M 271.96866 318.1655 
L 277.745154 318.1655 
" style="fill:none;stroke:#1f77b4;stroke-width:1.5;"/>
    <path clip-path="url(#peb74acc0b5)" d="M 277.745154 318.1655 
L 283.831064 318.1655 
" style="fill:none;stroke:#1f77b4;stroke-width:1.5;"/>
    <path clip-path="url(#peb74acc0b5)" d="M 283.831064 318.1655 
L 290.716201 318.1655 
" style="fill:none;stroke:#1f77b4;stroke-width:1.5;"/>
    <path clip-path="url(#peb74acc0b5)" d="M 290.716201 318.1655 
L 296.774594 318.1655 
" style="fill:none;stroke:#1f77b4;stroke-width:1.5;"/>
    <path clip-path="url(#peb74acc0b5)" d="M 296.774594 318.1655 
L 303.154713 318.1655 
" style="fill:none;stroke:#1f77b4;stroke-width:1.5;"/>
    <path clip-path="url(#peb74acc0b5)" d="M 303.154713 318.1655 
L 308.655605 318.1655 
" style="fill:none;stroke:#1f77b4;stroke-width:1.5;"/>
    <path clip-path="url(#peb74acc0b5)" d="M 308.655605 318.1655 
L 314.34302 318.1655 
" style="fill:none;stroke:#1f77b4;stroke-width:1.5;"/>
    <path clip-path="url(#peb74acc0b5)" d="M 314.34302 318.1655 
L 321.49936 318.1655 
" style="fill:none;stroke:#1f77b4;stroke-width:1.5;"/>
    <path clip-path="url(#peb74acc0b5)" d="M 321.49936 318.1655 
L 328.343123 318.1655 
" style="fill:none;stroke:#1f77b4;stroke-width:1.5;"/>
    <path clip-path="url(#peb74acc0b5)" d="M 328.343123 318.1655 
L 335.904626 318.1655 
" style="fill:none;stroke:#1f77b4;stroke-width:1.5;"/>
    <path clip-path="url(#peb74acc0b5)" d="M 335.904626 318.1655 
L 343.382921 318.1655 
" style="fill:none;stroke:#1f77b4;stroke-width:1.5;"/>
    <path clip-path="url(#peb74acc0b5)" d="M 343.382921 318.1655 
L 351.66949 318.1655 
" style="fill:none;stroke:#1f77b4;stroke-width:1.5;"/>
    <path clip-path="url(#peb74acc0b5)" d="M 351.66949 318.1655 
L 360.332209 318.1655 
" style="fill:none;stroke:#1f77b4;stroke-width:1.5;"/>
    <path clip-path="url(#peb74acc0b5)" d="M 360.332209 318.1655 
L 366.967441 318.1655 
" style="fill:none;stroke:#1f77b4;stroke-width:1.5;"/>
    <path clip-path="url(#peb74acc0b5)" d="M 366.967441 318.1655 
L 374.8293 318.1655 
" style="fill:none;stroke:#1f77b4;stroke-width:1.5;"/>
    <path clip-path="url(#peb74acc0b5)" d="M 374.8293 318.1655 
L 382.158252 318.1655 
" style="fill:none;stroke:#1f77b4;stroke-width:1.5;"/>
    <path clip-path="url(#peb74acc0b5)" d="M 382.158252 318.1655 
L 388.800068 318.1655 
" style="fill:none;stroke:#1f77b4;stroke-width:1.5;"/>
    <path clip-path="url(#peb74acc0b5)" d="M 388.800068 318.1655 
L 395.19537 318.1655 
" style="fill:none;stroke:#1f77b4;stroke-width:1.5;"/>
    <path clip-path="url(#peb74acc0b5)" d="M 395.19537 318.1655 
L 401.024862 318.1655 
" style="fill:none;stroke:#1f77b4;stroke-width:1.5;"/>
    <path clip-path="url(#peb74acc0b5)" d="M 401.024862 318.1655 
L 406.449577 318.1655 
" style="fill:none;stroke:#1f77b4;stroke-width:1.5;"/>
    <path clip-path="url(#peb74acc0b5)" d="M 406.449577 318.1655 
L 413.036433 318.1655 
" style="fill:none;stroke:#1f77b4;stroke-width:1.5;"/>
    <path clip-path="url(#peb74acc0b5)" d="M 413.036433 318.1655 
L 419.332273 318.1655 
" style="fill:none;stroke:#1f77b4;stroke-width:1.5;"/>
    <path clip-path="url(#peb74acc0b5)" d="M 419.332273 318.1655 
L 426.078409 318.1655 
" style="fill:none;stroke:#1f77b4;stroke-width:1.5;"/>
   </g>
   <g id="LineCollection_2">
    <path clip-path="url(#peb74acc0b5)" d="M 27.146591 318.1655 
L 33.498924 318.1655 
" style="fill:none;stroke:#ff7f0e;stroke-width:1.5;"/>
    <path clip-path="url(#peb74acc0b5)" d="M 33.498924 318.1655 
L 39.67226 318.1655 
" style="fill:none;stroke:#ff7f0e;stroke-width:1.5;"/>
    <path clip-path="url(#peb74acc0b5)" d="M 39.67226 318.1655 
L 46.166878 318.1655 
" style="fill:none;stroke:#ff7f0e;stroke-width:1.5;"/>
    <path clip-path="url(#peb74acc0b5)" d="M 46.166878 318.1655 
L 51.888177 318.1655 
" style="fill:none;stroke:#ff7f0e;stroke-width:1.5;"/>
    <path clip-path="url(#peb74acc0b5)" d="M 51.888177 318.1655 
L 57.473913 318.1655 
" style="fill:none;stroke:#ff7f0e;stroke-width:1.5;"/>
    <path clip-path="url(#peb74acc0b5)" d="M 57.473913 318.1655 
L 62.572611 318.1655 
" style="fill:none;stroke:#ff7f0e;stroke-width:1.5;"/>
    <path clip-path="url(#peb74acc0b5)" d="M 62.572611 318.1655 
L 68.718362 318.1655 
" style="fill:none;stroke:#ff7f0e;stroke-width:1.5;"/>
    <path clip-path="url(#peb74acc0b5)" d="M 68.718362 318.1655 
L 74.348686 318.1655 
" style="fill:none;stroke:#ff7f0e;stroke-width:1.5;"/>
    <path clip-path="url(#peb74acc0b5)" d="M 74.348686 318.1655 
L 81.821786 318.1655 
" style="fill:none;stroke:#ff7f0e;stroke-width:1.5;"/>
    <path clip-path="url(#peb74acc0b5)" d="M 81.821786 318.1655 
L 89.410232 318.1655 
" style="fill:none;stroke:#ff7f0e;stroke-width:1.5;"/>
    <path clip-path="url(#peb74acc0b5)" d="M 89.410232 318.1655 
L 96.161189 318.1655 
" style="fill:none;stroke:#ff7f0e;stroke-width:1.5;"/>
    <path clip-path="url(#peb74acc0b5)" d="M 96.161189 318.1655 
L 102.652279 318.1655 
" style="fill:none;stroke:#ff7f0e;stroke-width:1.5;"/>
    <path clip-path="url(#peb74acc0b5)" d="M 102.652279 318.1655 
L 109.177077 318.1655 
" style="fill:none;stroke:#ff7f0e;stroke-width:1.5;"/>
    <path clip-path="url(#peb74acc0b5)" d="M 109.177077 318.1655 
L 116.087502 318.1655 
" style="fill:none;stroke:#ff7f0e;stroke-width:1.5;"/>
    <path clip-path="url(#peb74acc0b5)" d="M 116.087502 318.1655 
L 121.241281 318.1655 
" style="fill:none;stroke:#ff7f0e;stroke-width:1.5;"/>
    <path clip-path="url(#peb74acc0b5)" d="M 121.241281 318.1655 
L 127.454942 318.1655 
" style="fill:none;stroke:#ff7f0e;stroke-width:1.5;"/>
    <path clip-path="url(#peb74acc0b5)" d="M 127.454942 318.1655 
L 133.205586 318.1655 
" style="fill:none;stroke:#ff7f0e;stroke-width:1.5;"/>
    <path clip-path="url(#peb74acc0b5)" d="M 133.205586 318.1655 
L 138.307495 318.1655 
" style="fill:none;stroke:#ff7f0e;stroke-width:1.5;"/>
    <path clip-path="url(#peb74acc0b5)" d="M 138.307495 318.1655 
L 143.457571 318.1655 
" style="fill:none;stroke:#ff7f0e;stroke-width:1.5;"/>
    <path clip-path="url(#peb74acc0b5)" d="M 143.457571 318.1655 
L 149.199106 318.1655 
" style="fill:none;stroke:#ff7f0e;stroke-width:1.5;"/>
    <path clip-path="url(#peb74acc0b5)" d="M 149.199106 318.1655 
L 154.820928 318.1655 
" style="fill:none;stroke:#ff7f0e;stroke-width:1.5;"/>
    <path clip-path="url(#peb74acc0b5)" d="M 154.820928 318.1655 
L 161.201958 318.1655 
" style="fill:none;stroke:#ff7f0e;stroke-width:1.5;"/>
    <path clip-path="url(#peb74acc0b5)" d="M 161.201958 318.1655 
L 166.328673 318.1655 
" style="fill:none;stroke:#ff7f0e;stroke-width:1.5;"/>
    <path clip-path="url(#peb74acc0b5)" d="M 166.328673 318.1655 
L 172.498544 318.1655 
" style="fill:none;stroke:#ff7f0e;stroke-width:1.5;"/>
    <path clip-path="url(#peb74acc0b5)" d="M 172.498544 318.1655 
L 179.442599 318.1655 
" style="fill:none;stroke:#ff7f0e;stroke-width:1.5;"/>
    <path clip-path="url(#peb74acc0b5)" d="M 179.442599 318.1655 
L 185.90774 318.1655 
" style="fill:none;stroke:#ff7f0e;stroke-width:1.5;"/>
    <path clip-path="url(#peb74acc0b5)" d="M 185.90774 318.1655 
L 192.38383 318.1655 
" style="fill:none;stroke:#ff7f0e;stroke-width:1.5;"/>
    <path clip-path="url(#peb74acc0b5)" d="M 192.38383 318.1655 
L 198.72188 318.1655 
" style="fill:none;stroke:#ff7f0e;stroke-width:1.5;"/>
    <path clip-path="url(#peb74acc0b5)" d="M 198.72188 318.1655 
L 206.330612 318.1655 
" style="fill:none;stroke:#ff7f0e;stroke-width:1.5;"/>
    <path clip-path="url(#peb74acc0b5)" d="M 206.330612 318.1655 
L 214.129073 318.1655 
" style="fill:none;stroke:#ff7f0e;stroke-width:1.5;"/>
    <path clip-path="url(#peb74acc0b5)" d="M 214.129073 318.1655 
L 220.950853 318.1655 
" style="fill:none;stroke:#ff7f0e;stroke-width:1.5;"/>
    <path clip-path="url(#peb74acc0b5)" d="M 220.950853 318.1655 
L 224.079021 318.1655 
" style="fill:none;stroke:#ff7f0e;stroke-width:1.5;"/>
    <path clip-path="url(#peb74acc0b5)" d="M 224.079021 318.1655 
L 225.506393 318.1655 
" style="fill:none;stroke:#ff7f0e;stroke-width:1.5;"/>
    <path clip-path="url(#peb74acc0b5)" d="M 225.506393 318.1655 
L 226.198614 318.1655 
" style="fill:none;stroke:#ff7f0e;stroke-width:1.5;"/>
    <path clip-path="url(#peb74acc0b5)" d="M 226.198614 318.1655 
L 226.576729 318.1655 
" style="fill:none;stroke:#ff7f0e;stroke-width:1.5;"/>
    <path clip-path="url(#peb74acc0b5)" d="M 226.576729 318.1655 
L 226.622285 42.0555 
" style="fill:none;stroke:#ff7f0e;stroke-width:1.5;"/>
    <path clip-path="url(#peb74acc0b5)" d="M 226.622285 42.0555 
L 226.667394 42.367534 
" style="fill:none;stroke:#ff7f0e;stroke-width:1.5;"/>
    <path clip-path="url(#peb74acc0b5)" d="M 226.667394 42.367534 
L 226.754352 42.968053 
" style="fill:none;stroke:#ff7f0e;stroke-width:1.5;"/>
    <path clip-path="url(#peb74acc0b5)" d="M 226.754352 42.968053 
L 226.931652 44.18842 
" style="fill:none;stroke:#ff7f0e;stroke-width:1.5;"/>
    <path clip-path="url(#peb74acc0b5)" d="M 226.931652 44.18842 
L 232.557521 80.22488 
" style="fill:none;stroke:#ff7f0e;stroke-width:1.5;"/>
    <path clip-path="url(#peb74acc0b5)" d="M 232.557521 80.22488 
L 238.521141 113.263577 
" style="fill:none;stroke:#ff7f0e;stroke-width:1.5;"/>
    <path clip-path="url(#peb74acc0b5)" d="M 238.521141 113.263577 
L 243.655679 138.009295 
" style="fill:none;stroke:#ff7f0e;stroke-width:1.5;"/>
    <path clip-path="url(#peb74acc0b5)" d="M 243.655679 138.009295 
L 248.756305 159.631801 
" style="fill:none;stroke:#ff7f0e;stroke-width:1.5;"/>
    <path clip-path="url(#peb74acc0b5)" d="M 248.756305 159.631801 
L 254.267315 180.086908 
" style="fill:none;stroke:#ff7f0e;stroke-width:1.5;"/>
    <path clip-path="url(#peb74acc0b5)" d="M 254.267315 180.086908 
L 259.877403 198.201071 
" style="fill:none;stroke:#ff7f0e;stroke-width:1.5;"/>
    <path clip-path="url(#peb74acc0b5)" d="M 259.877403 198.201071 
L 265.919153 215.06058 
" style="fill:none;stroke:#ff7f0e;stroke-width:1.5;"/>
    <path clip-path="url(#peb74acc0b5)" d="M 265.919153 215.06058 
L 273.282921 232.439174 
" style="fill:none;stroke:#ff7f0e;stroke-width:1.5;"/>
    <path clip-path="url(#peb74acc0b5)" d="M 273.282921 232.439174 
L 278.630061 243.192838 
" style="fill:none;stroke:#ff7f0e;stroke-width:1.5;"/>
    <path clip-path="url(#peb74acc0b5)" d="M 278.630061 243.192838 
L 283.632921 252.029242 
" style="fill:none;stroke:#ff7f0e;stroke-width:1.5;"/>
    <path clip-path="url(#peb74acc0b5)" d="M 283.632921 252.029242 
L 289.911335 261.660083 
" style="fill:none;stroke:#ff7f0e;stroke-width:1.5;"/>
    <path clip-path="url(#peb74acc0b5)" d="M 289.911335 261.660083 
L 295.165691 268.633155 
" style="fill:none;stroke:#ff7f0e;stroke-width:1.5;"/>
    <path clip-path="url(#peb74acc0b5)" d="M 295.165691 268.633155 
L 300.31263 274.628643 
" style="fill:none;stroke:#ff7f0e;stroke-width:1.5;"/>
    <path clip-path="url(#peb74acc0b5)" d="M 300.31263 274.628643 
L 305.709734 280.137642 
" style="fill:none;stroke:#ff7f0e;stroke-width:1.5;"/>
    <path clip-path="url(#peb74acc0b5)" d="M 305.709734 280.137642 
L 311.738412 285.471274 
" style="fill:none;stroke:#ff7f0e;stroke-width:1.5;"/>
    <path clip-path="url(#peb74acc0b5)" d="M 311.738412 285.471274 
L 317.777863 290.064422 
" style="fill:none;stroke:#ff7f0e;stroke-width:1.5;"/>
    <path clip-path="url(#peb74acc0b5)" d="M 317.777863 290.064422 
L 325.421074 294.964021 
" style="fill:none;stroke:#ff7f0e;stroke-width:1.5;"/>
    <path clip-path="url(#peb74acc0b5)" d="M 325.421074 294.964021 
L 333.169733 299.059912 
" style="fill:none;stroke:#ff7f0e;stroke-width:1.5;"/>
    <path clip-path="url(#peb74acc0b5)" d="M 333.169733 299.059912 
L 339.505867 301.865692 
" style="fill:none;stroke:#ff7f0e;stroke-width:1.5;"/>
    <path clip-path="url(#peb74acc0b5)" d="M 339.505867 301.865692 
L 347.01692 304.663008 
" style="fill:none;stroke:#ff7f0e;stroke-width:1.5;"/>
    <path clip-path="url(#peb74acc0b5)" d="M 347.01692 304.663008 
L 353.53705 306.698945 
" style="fill:none;stroke:#ff7f0e;stroke-width:1.5;"/>
    <path clip-path="url(#peb74acc0b5)" d="M 353.53705 306.698945 
L 360.665214 308.57519 
" style="fill:none;stroke:#ff7f0e;stroke-width:1.5;"/>
    <path clip-path="url(#peb74acc0b5)" d="M 360.665214 308.57519 
L 367.401525 310.065253 
" style="fill:none;stroke:#ff7f0e;stroke-width:1.5;"/>
    <path clip-path="url(#peb74acc0b5)" d="M 367.401525 310.065253 
L 374.638671 311.409159 
" style="fill:none;stroke:#ff7f0e;stroke-width:1.5;"/>
    <path clip-path="url(#peb74acc0b5)" d="M 374.638671 311.409159 
L 380.51801 312.33499 
" style="fill:none;stroke:#ff7f0e;stroke-width:1.5;"/>
    <path clip-path="url(#peb74acc0b5)" d="M 380.51801 312.33499 
L 387.24214 313.239383 
" style="fill:none;stroke:#ff7f0e;stroke-width:1.5;"/>
    <path clip-path="url(#peb74acc0b5)" d="M 387.24214 313.239383 
L 394.927591 314.102587 
" style="fill:none;stroke:#ff7f0e;stroke-width:1.5;"/>
    <path clip-path="url(#peb74acc0b5)" d="M 394.927591 314.102587 
L 401.401398 314.711193 
" style="fill:none;stroke:#ff7f0e;stroke-width:1.5;"/>
    <path clip-path="url(#peb74acc0b5)" d="M 401.401398 314.711193 
L 408.235313 315.255025 
" style="fill:none;stroke:#ff7f0e;stroke-width:1.5;"/>
    <path clip-path="url(#peb74acc0b5)" d="M 408.235313 315.255025 
L 414.829967 315.698486 
" style="fill:none;stroke:#ff7f0e;stroke-width:1.5;"/>
    <path clip-path="url(#peb74acc0b5)" d="M 414.829967 315.698486 
L 420.856268 316.044373 
" style="fill:none;stroke:#ff7f0e;stroke-width:1.5;"/>
    <path clip-path="url(#peb74acc0b5)" d="M 420.856268 316.044373 
L 426.078409 316.304629 
" style="fill:none;stroke:#ff7f0e;stroke-width:1.5;"/>
   </g>
   <g id="patch_3">
    <path d="M 226.6125 331.971 
L 226.6125 28.25 
" style="fill:none;stroke:#000000;stroke-linecap:square;stroke-linejoin:miter;stroke-width:0.8;"/>
   </g>
   <g id="patch_4">
    <path d="M 446.025 331.971 
L 446.025 28.25 
" style="fill:none;"/>
   </g>
   <g id="patch_5">
    <path d="M 7.2 318.1655 
L 446.025 318.1655 
" style="fill:none;stroke:#000000;stroke-linecap:square;stroke-linejoin:miter;stroke-width:0.8;"/>
   </g>
   <g id="patch_6">
    <path d="M 7.2 28.25 
L 446.025 28.25 
" style="fill:none;"/>
   </g>
  </g>
 </g>
 <defs>
  <clipPath id="peb74acc0b5">
   <rect height="303.721" width="438.825" x="7.2" y="28.25"/>
  </clipPath>
 </defs>
</svg>