<?xml version="1.0" encoding="utf-8" standalone="no"?>
<!DOCTYPE svg PUBLIC "-//W3C//DTD SVG 1.1//EN"
  "http://www.w3.org/Graphics/SVG/1.1/DTD/svg11.dtd">
<!-- Created with matplotlib (https://matplotlib.org/) -->
<svg height="365.92175pt" version="1.1" viewBox="0 0 456.275 365.92175" width="456.275pt" xmlns="http://www.w3.org/2000/svg" xmlns:xlink="http://www.w3.org/1999/xlink">
 <metadata>
  <rdf:RDF xmlns:cc="http://creativecommons.org/ns#" xmlns:dc="http://purl.org/dc/elements/1.1/" xmlns:rdf="http://www.w3.org/1999/02/22-rdf-syntax-ns#">
   <cc:Work>
    <dc:type rdf:resource="http://purl.org/dc/dcmitype/StillImage"/>
    <dc:date>2021-04-27T15:57:46.039736</dc:date>
    <dc:format>image/svg+xml</dc:format>
    <dc:creator>
     <cc:Agent>
      <dc:title>Matplotlib v3.3.4, https://matplotlib.org/</dc:title>
     </cc:Agent>
    </dc:creator>
   </cc:Work>
  </rdf:RDF>
 </metadata>
 <defs>
  <style type="text/css">*{stroke-linecap:butt;stroke-linejoin:round;}</style>
 </defs>
 <g id="figure_1">
  <g id="patch_1">
   <path d="M 0 365.92175 
L 456.275 365.92175 
L 456.275 0 
L 0 0 
z
" style="fill:#ffffff;"/>
  </g>
  <g id="axes_1">
   <g id="patch_2">
    <path d="M 7.2 342.171 
L 446.025 342.171 
L 446.025 38.45 
L 7.2 38.45 
z
" style="fill:#ffffff;"/>
   </g>
   <g id="matplotlib.axis_1">
    <g id="xtick_1">
     <g id="line2d_1">
      <defs>
       <path d="M 0 0 
L 0 3.5 
" id="mf4ad4f0974" style="stroke:#000000;stroke-width:0.8;"/>
      </defs>
      <g>
       <use style="stroke:#000000;stroke-width:0.8;" x="67.039773" xlink:href="#mf4ad4f0974" y="328.3655"/>
      </g>
     </g>
     <g id="text_1">
      <!-- −4 -->
      <g transform="translate(59.668679 342.963937)scale(0.1 -0.1)">
       <defs>
        <path d="M 10.59375 35.5 
L 73.1875 35.5 
L 73.1875 27.203125 
L 10.59375 27.203125 
z
" id="DejaVuSans-8722"/>
        <path d="M 37.796875 64.3125 
L 12.890625 25.390625 
L 37.796875 25.390625 
z
M 35.203125 72.90625 
L 47.609375 72.90625 
L 47.609375 25.390625 
L 58.015625 25.390625 
L 58.015625 17.1875 
L 47.609375 17.1875 
L 47.609375 0 
L 37.796875 0 
L 37.796875 17.1875 
L 4.890625 17.1875 
L 4.890625 26.703125 
z
" id="DejaVuSans-52"/>
       </defs>
       <use xlink:href="#DejaVuSans-8722"/>
       <use x="83.789062" xlink:href="#DejaVuSans-52"/>
      </g>
     </g>
    </g>
    <g id="xtick_2">
     <g id="line2d_2">
      <g>
       <use style="stroke:#000000;stroke-width:0.8;" x="146.826136" xlink:href="#mf4ad4f0974" y="328.3655"/>
      </g>
     </g>
     <g id="text_2">
      <!-- −2 -->
      <g transform="translate(139.455043 342.963937)scale(0.1 -0.1)">
       <defs>
        <path d="M 19.1875 8.296875 
L 53.609375 8.296875 
L 53.609375 0 
L 7.328125 0 
L 7.328125 8.296875 
Q 12.9375 14.109375 22.625 23.890625 
Q 32.328125 33.6875 34.8125 36.53125 
Q 39.546875 41.84375 41.421875 45.53125 
Q 43.3125 49.21875 43.3125 52.78125 
Q 43.3125 58.59375 39.234375 62.25 
Q 35.15625 65.921875 28.609375 65.921875 
Q 23.96875 65.921875 18.8125 64.3125 
Q 13.671875 62.703125 7.8125 59.421875 
L 7.8125 69.390625 
Q 13.765625 71.78125 18.9375 73 
Q 24.125 74.21875 28.421875 74.21875 
Q 39.75 74.21875 46.484375 68.546875 
Q 53.21875 62.890625 53.21875 53.421875 
Q 53.21875 48.921875 51.53125 44.890625 
Q 49.859375 40.875 45.40625 35.40625 
Q 44.1875 33.984375 37.640625 27.21875 
Q 31.109375 20.453125 19.1875 8.296875 
z
" id="DejaVuSans-50"/>
       </defs>
       <use xlink:href="#DejaVuSans-8722"/>
       <use x="83.789062" xlink:href="#DejaVuSans-50"/>
      </g>
     </g>
    </g>
    <g id="xtick_3">
     <g id="line2d_3">
      <g>
       <use style="stroke:#000000;stroke-width:0.8;" x="226.6125" xlink:href="#mf4ad4f0974" y="328.3655"/>
      </g>
     </g>
     <g id="text_3">
      <!-- 0 -->
      <g transform="translate(223.43125 342.963937)scale(0.1 -0.1)">
       <defs>
        <path d="M 31.78125 66.40625 
Q 24.171875 66.40625 20.328125 58.90625 
Q 16.5 51.421875 16.5 36.375 
Q 16.5 21.390625 20.328125 13.890625 
Q 24.171875 6.390625 31.78125 6.390625 
Q 39.453125 6.390625 43.28125 13.890625 
Q 47.125 21.390625 47.125 36.375 
Q 47.125 51.421875 43.28125 58.90625 
Q 39.453125 66.40625 31.78125 66.40625 
z
M 31.78125 74.21875 
Q 44.046875 74.21875 50.515625 64.515625 
Q 56.984375 54.828125 56.984375 36.375 
Q 56.984375 17.96875 50.515625 8.265625 
Q 44.046875 -1.421875 31.78125 -1.421875 
Q 19.53125 -1.421875 13.0625 8.265625 
Q 6.59375 17.96875 6.59375 36.375 
Q 6.59375 54.828125 13.0625 64.515625 
Q 19.53125 74.21875 31.78125 74.21875 
z
" id="DejaVuSans-48"/>
       </defs>
       <use xlink:href="#DejaVuSans-48"/>
      </g>
     </g>
    </g>
    <g id="xtick_4">
     <g id="line2d_4">
      <g>
       <use style="stroke:#000000;stroke-width:0.8;" x="306.398864" xlink:href="#mf4ad4f0974" y="328.3655"/>
      </g>
     </g>
     <g id="text_4">
      <!-- 2 -->
      <g transform="translate(303.217614 342.963937)scale(0.1 -0.1)">
       <use xlink:href="#DejaVuSans-50"/>
      </g>
     </g>
    </g>
    <g id="xtick_5">
     <g id="line2d_5">
      <g>
       <use style="stroke:#000000;stroke-width:0.8;" x="386.185227" xlink:href="#mf4ad4f0974" y="328.3655"/>
      </g>
     </g>
     <g id="text_5">
      <!-- 4 -->
      <g transform="translate(383.003977 342.963937)scale(0.1 -0.1)">
       <use xlink:href="#DejaVuSans-52"/>
      </g>
     </g>
    </g>
    <g id="text_6">
     <!-- $\tau$ -->
     <g transform="translate(442.975 356.642062)scale(0.1 -0.1)">
      <defs>
       <path d="M 32.859375 9.96875 
Q 34.1875 7.625 39.453125 7.625 
L 43.75 7.625 
L 42.28125 0 
L 36.921875 0 
Q 28.125 0 25 4.6875 
Q 21.921875 9.46875 23.96875 19.828125 
L 29 45.703125 
L 8.453125 45.703125 
L 10.203125 54.6875 
L 60.640625 54.6875 
L 58.890625 45.703125 
L 38.1875 45.703125 
L 33.015625 19.28125 
Q 31.640625 12.203125 32.859375 9.96875 
z
" id="DejaVuSans-Oblique-964"/>
      </defs>
      <use transform="translate(0 0.3125)" xlink:href="#DejaVuSans-Oblique-964"/>
     </g>
    </g>
   </g>
   <g id="matplotlib.axis_2">
    <g id="ytick_1">
     <g id="line2d_6">
      <defs>
       <path d="M 0 0 
L -3.5 0 
" id="m31a23559fd" style="stroke:#000000;stroke-width:0.8;"/>
      </defs>
      <g>
       <use style="stroke:#000000;stroke-width:0.8;" x="226.6125" xlink:href="#m31a23559fd" y="328.3655"/>
      </g>
     </g>
     <g id="text_7">
      <!-- 0.0 -->
      <g transform="translate(203.709375 332.164719)scale(0.1 -0.1)">
       <defs>
        <path d="M 10.6875 12.40625 
L 21 12.40625 
L 21 0 
L 10.6875 0 
z
" id="DejaVuSans-46"/>
       </defs>
       <use xlink:href="#DejaVuSans-48"/>
       <use x="63.623047" xlink:href="#DejaVuSans-46"/>
       <use x="95.410156" xlink:href="#DejaVuSans-48"/>
      </g>
     </g>
    </g>
    <g id="ytick_2">
     <g id="line2d_7">
      <g>
       <use style="stroke:#000000;stroke-width:0.8;" x="226.6125" xlink:href="#m31a23559fd" y="273.108828"/>
      </g>
     </g>
     <g id="text_8">
      <!-- 0.2 -->
      <g transform="translate(203.709375 276.908047)scale(0.1 -0.1)">
       <use xlink:href="#DejaVuSans-48"/>
       <use x="63.623047" xlink:href="#DejaVuSans-46"/>
       <use x="95.410156" xlink:href="#DejaVuSans-50"/>
      </g>
     </g>
    </g>
    <g id="ytick_3">
     <g id="line2d_8">
      <g>
       <use style="stroke:#000000;stroke-width:0.8;" x="226.6125" xlink:href="#m31a23559fd" y="217.852157"/>
      </g>
     </g>
     <g id="text_9">
      <!-- 0.4 -->
      <g transform="translate(203.709375 221.651375)scale(0.1 -0.1)">
       <use xlink:href="#DejaVuSans-48"/>
       <use x="63.623047" xlink:href="#DejaVuSans-46"/>
       <use x="95.410156" xlink:href="#DejaVuSans-52"/>
      </g>
     </g>
    </g>
    <g id="ytick_4">
     <g id="line2d_9">
      <g>
       <use style="stroke:#000000;stroke-width:0.8;" x="226.6125" xlink:href="#m31a23559fd" y="162.595485"/>
      </g>
     </g>
     <g id="text_10">
      <!-- 0.6 -->
      <g transform="translate(203.709375 166.394704)scale(0.1 -0.1)">
       <defs>
        <path d="M 33.015625 40.375 
Q 26.375 40.375 22.484375 35.828125 
Q 18.609375 31.296875 18.609375 23.390625 
Q 18.609375 15.53125 22.484375 10.953125 
Q 26.375 6.390625 33.015625 6.390625 
Q 39.65625 6.390625 43.53125 10.953125 
Q 47.40625 15.53125 47.40625 23.390625 
Q 47.40625 31.296875 43.53125 35.828125 
Q 39.65625 40.375 33.015625 40.375 
z
M 52.59375 71.296875 
L 52.59375 62.3125 
Q 48.875 64.0625 45.09375 64.984375 
Q 41.3125 65.921875 37.59375 65.921875 
Q 27.828125 65.921875 22.671875 59.328125 
Q 17.53125 52.734375 16.796875 39.40625 
Q 19.671875 43.65625 24.015625 45.921875 
Q 28.375 48.1875 33.59375 48.1875 
Q 44.578125 48.1875 50.953125 41.515625 
Q 57.328125 34.859375 57.328125 23.390625 
Q 57.328125 12.15625 50.6875 5.359375 
Q 44.046875 -1.421875 33.015625 -1.421875 
Q 20.359375 -1.421875 13.671875 8.265625 
Q 6.984375 17.96875 6.984375 36.375 
Q 6.984375 53.65625 15.1875 63.9375 
Q 23.390625 74.21875 37.203125 74.21875 
Q 40.921875 74.21875 44.703125 73.484375 
Q 48.484375 72.75 52.59375 71.296875 
z
" id="DejaVuSans-54"/>
       </defs>
       <use xlink:href="#DejaVuSans-48"/>
       <use x="63.623047" xlink:href="#DejaVuSans-46"/>
       <use x="95.410156" xlink:href="#DejaVuSans-54"/>
      </g>
     </g>
    </g>
    <g id="ytick_5">
     <g id="line2d_10">
      <g>
       <use style="stroke:#000000;stroke-width:0.8;" x="226.6125" xlink:href="#m31a23559fd" y="107.338813"/>
      </g>
     </g>
     <g id="text_11">
      <!-- 0.8 -->
      <g transform="translate(203.709375 111.138032)scale(0.1 -0.1)">
       <defs>
        <path d="M 31.78125 34.625 
Q 24.75 34.625 20.71875 30.859375 
Q 16.703125 27.09375 16.703125 20.515625 
Q 16.703125 13.921875 20.71875 10.15625 
Q 24.75 6.390625 31.78125 6.390625 
Q 38.8125 6.390625 42.859375 10.171875 
Q 46.921875 13.96875 46.921875 20.515625 
Q 46.921875 27.09375 42.890625 30.859375 
Q 38.875 34.625 31.78125 34.625 
z
M 21.921875 38.8125 
Q 15.578125 40.375 12.03125 44.71875 
Q 8.5 49.078125 8.5 55.328125 
Q 8.5 64.0625 14.71875 69.140625 
Q 20.953125 74.21875 31.78125 74.21875 
Q 42.671875 74.21875 48.875 69.140625 
Q 55.078125 64.0625 55.078125 55.328125 
Q 55.078125 49.078125 51.53125 44.71875 
Q 48 40.375 41.703125 38.8125 
Q 48.828125 37.15625 52.796875 32.3125 
Q 56.78125 27.484375 56.78125 20.515625 
Q 56.78125 9.90625 50.3125 4.234375 
Q 43.84375 -1.421875 31.78125 -1.421875 
Q 19.734375 -1.421875 13.25 4.234375 
Q 6.78125 9.90625 6.78125 20.515625 
Q 6.78125 27.484375 10.78125 32.3125 
Q 14.796875 37.15625 21.921875 38.8125 
z
M 18.3125 54.390625 
Q 18.3125 48.734375 21.84375 45.5625 
Q 25.390625 42.390625 31.78125 42.390625 
Q 38.140625 42.390625 41.71875 45.5625 
Q 45.3125 48.734375 45.3125 54.390625 
Q 45.3125 60.0625 41.71875 63.234375 
Q 38.140625 66.40625 31.78125 66.40625 
Q 25.390625 66.40625 21.84375 63.234375 
Q 18.3125 60.0625 18.3125 54.390625 
z
" id="DejaVuSans-56"/>
       </defs>
       <use xlink:href="#DejaVuSans-48"/>
       <use x="63.623047" xlink:href="#DejaVuSans-46"/>
       <use x="95.410156" xlink:href="#DejaVuSans-56"/>
      </g>
     </g>
    </g>
    <g id="ytick_6">
     <g id="line2d_11">
      <g>
       <use style="stroke:#000000;stroke-width:0.8;" x="226.6125" xlink:href="#m31a23559fd" y="52.082142"/>
      </g>
     </g>
     <g id="text_12">
      <!-- 1.0 -->
      <g transform="translate(203.709375 55.88136)scale(0.1 -0.1)">
       <defs>
        <path d="M 12.40625 8.296875 
L 28.515625 8.296875 
L 28.515625 63.921875 
L 10.984375 60.40625 
L 10.984375 69.390625 
L 28.421875 72.90625 
L 38.28125 72.90625 
L 38.28125 8.296875 
L 54.390625 8.296875 
L 54.390625 0 
L 12.40625 0 
z
" id="DejaVuSans-49"/>
       </defs>
       <use xlink:href="#DejaVuSans-49"/>
       <use x="63.623047" xlink:href="#DejaVuSans-46"/>
       <use x="95.410156" xlink:href="#DejaVuSans-48"/>
      </g>
     </g>
    </g>
    <g id="text_13">
     <!-- $h(\tau-t)$, $x(\tau)$ -->
     <g transform="translate(197.629687 69.7)rotate(-90)scale(0.1 -0.1)">
      <defs>
       <path d="M 55.71875 33.015625 
L 49.3125 0 
L 40.28125 0 
L 46.6875 32.671875 
Q 47.125 34.96875 47.359375 36.71875 
Q 47.609375 38.484375 47.609375 39.5 
Q 47.609375 43.609375 45.015625 45.890625 
Q 42.4375 48.1875 37.796875 48.1875 
Q 30.5625 48.1875 25.265625 43.296875 
Q 19.96875 38.421875 18.40625 30.328125 
L 12.5 0 
L 3.515625 0 
L 18.3125 75.984375 
L 27.296875 75.984375 
L 21.484375 46.09375 
Q 24.90625 50.6875 30.21875 53.34375 
Q 35.546875 56 41.40625 56 
Q 48.640625 56 52.609375 52.09375 
Q 56.59375 48.1875 56.59375 41.109375 
Q 56.59375 39.359375 56.375 37.359375 
Q 56.15625 35.359375 55.71875 33.015625 
z
" id="DejaVuSans-Oblique-104"/>
       <path d="M 31 75.875 
Q 24.46875 64.65625 21.28125 53.65625 
Q 18.109375 42.671875 18.109375 31.390625 
Q 18.109375 20.125 21.3125 9.0625 
Q 24.515625 -2 31 -13.1875 
L 23.1875 -13.1875 
Q 15.875 -1.703125 12.234375 9.375 
Q 8.59375 20.453125 8.59375 31.390625 
Q 8.59375 42.28125 12.203125 53.3125 
Q 15.828125 64.359375 23.1875 75.875 
z
" id="DejaVuSans-40"/>
       <path d="M 42.28125 54.6875 
L 40.921875 47.703125 
L 23 47.703125 
L 17.1875 18.015625 
Q 16.890625 16.359375 16.75 15.234375 
Q 16.609375 14.109375 16.609375 13.484375 
Q 16.609375 10.359375 18.484375 8.9375 
Q 20.359375 7.515625 24.515625 7.515625 
L 33.59375 7.515625 
L 32.078125 0 
L 23.484375 0 
Q 15.484375 0 11.546875 3.125 
Q 7.625 6.25 7.625 12.59375 
Q 7.625 13.71875 7.765625 15.0625 
Q 7.90625 16.40625 8.203125 18.015625 
L 14.015625 47.703125 
L 6.390625 47.703125 
L 7.8125 54.6875 
L 15.28125 54.6875 
L 18.3125 70.21875 
L 27.296875 70.21875 
L 24.3125 54.6875 
z
" id="DejaVuSans-Oblique-116"/>
       <path d="M 8.015625 75.875 
L 15.828125 75.875 
Q 23.140625 64.359375 26.78125 53.3125 
Q 30.421875 42.28125 30.421875 31.390625 
Q 30.421875 20.453125 26.78125 9.375 
Q 23.140625 -1.703125 15.828125 -13.1875 
L 8.015625 -13.1875 
Q 14.5 -2 17.703125 9.0625 
Q 20.90625 20.125 20.90625 31.390625 
Q 20.90625 42.671875 17.703125 53.65625 
Q 14.5 64.65625 8.015625 75.875 
z
" id="DejaVuSans-41"/>
       <path d="M 11.71875 12.40625 
L 22.015625 12.40625 
L 22.015625 4 
L 14.015625 -11.625 
L 7.71875 -11.625 
L 11.71875 4 
z
" id="DejaVuSans-44"/>
       <path id="DejaVuSans-32"/>
       <path d="M 60.015625 54.6875 
L 34.90625 27.875 
L 50.296875 0 
L 39.984375 0 
L 28.421875 21.6875 
L 8.296875 0 
L -2.59375 0 
L 24.3125 28.8125 
L 10.015625 54.6875 
L 20.3125 54.6875 
L 30.8125 34.90625 
L 49.125 54.6875 
z
" id="DejaVuSans-Oblique-120"/>
      </defs>
      <use transform="translate(0 0.015625)" xlink:href="#DejaVuSans-Oblique-104"/>
      <use transform="translate(63.378906 0.015625)" xlink:href="#DejaVuSans-40"/>
      <use transform="translate(102.392578 0.015625)" xlink:href="#DejaVuSans-Oblique-964"/>
      <use transform="translate(182.080078 0.015625)" xlink:href="#DejaVuSans-8722"/>
      <use transform="translate(285.351562 0.015625)" xlink:href="#DejaVuSans-Oblique-116"/>
      <use transform="translate(324.560547 0.015625)" xlink:href="#DejaVuSans-41"/>
      <use transform="translate(363.574219 0.015625)" xlink:href="#DejaVuSans-44"/>
      <use transform="translate(395.361328 0.015625)" xlink:href="#DejaVuSans-32"/>
      <use transform="translate(427.148438 0.015625)" xlink:href="#DejaVuSans-Oblique-120"/>
      <use transform="translate(486.328125 0.015625)" xlink:href="#DejaVuSans-40"/>
      <use transform="translate(525.341797 0.015625)" xlink:href="#DejaVuSans-Oblique-964"/>
      <use transform="translate(585.546875 0.015625)" xlink:href="#DejaVuSans-41"/>
     </g>
    </g>
   </g>
   <g id="LineCollection_1">
    <path clip-path="url(#p7b641c9f84)" d="M 27.146591 328.3655 
L 32.103207 328.3655 
" style="fill:none;stroke:#1f77b4;stroke-width:1.5;"/>
    <path clip-path="url(#p7b641c9f84)" d="M 32.103207 328.3655 
L 37.058231 328.3655 
" style="fill:none;stroke:#1f77b4;stroke-width:1.5;"/>
    <path clip-path="url(#p7b641c9f84)" d="M 37.058231 328.3655 
L 41.534964 328.3655 
" style="fill:none;stroke:#1f77b4;stroke-width:1.5;"/>
    <path clip-path="url(#p7b641c9f84)" d="M 41.534964 328.3655 
L 45.679925 328.3655 
" style="fill:none;stroke:#1f77b4;stroke-width:1.5;"/>
    <path clip-path="url(#p7b641c9f84)" d="M 45.679925 328.3655 
L 51.408496 328.3655 
" style="fill:none;stroke:#1f77b4;stroke-width:1.5;"/>
    <path clip-path="url(#p7b641c9f84)" d="M 51.408496 328.3655 
L 56.990143 328.3655 
" style="fill:none;stroke:#1f77b4;stroke-width:1.5;"/>
    <path clip-path="url(#p7b641c9f84)" d="M 56.990143 328.3655 
L 61.809308 328.3655 
" style="fill:none;stroke:#1f77b4;stroke-width:1.5;"/>
    <path clip-path="url(#p7b641c9f84)" d="M 61.809308 328.3655 
L 66.990099 328.3655 
" style="fill:none;stroke:#1f77b4;stroke-width:1.5;"/>
    <path clip-path="url(#p7b641c9f84)" d="M 66.990099 328.3655 
L 72.864607 328.3655 
" style="fill:none;stroke:#1f77b4;stroke-width:1.5;"/>
    <path clip-path="url(#p7b641c9f84)" d="M 72.864607 328.3655 
L 79.399742 328.3655 
" style="fill:none;stroke:#1f77b4;stroke-width:1.5;"/>
    <path clip-path="url(#p7b641c9f84)" d="M 79.399742 328.3655 
L 85.360578 328.3655 
" style="fill:none;stroke:#1f77b4;stroke-width:1.5;"/>
    <path clip-path="url(#p7b641c9f84)" d="M 85.360578 328.3655 
L 90.804536 328.3655 
" style="fill:none;stroke:#1f77b4;stroke-width:1.5;"/>
    <path clip-path="url(#p7b641c9f84)" d="M 90.804536 328.3655 
L 96.229956 328.3655 
" style="fill:none;stroke:#1f77b4;stroke-width:1.5;"/>
    <path clip-path="url(#p7b641c9f84)" d="M 96.229956 328.3655 
L 101.441788 328.3655 
" style="fill:none;stroke:#1f77b4;stroke-width:1.5;"/>
    <path clip-path="url(#p7b641c9f84)" d="M 101.441788 328.3655 
L 108.085588 328.3655 
" style="fill:none;stroke:#1f77b4;stroke-width:1.5;"/>
    <path clip-path="url(#p7b641c9f84)" d="M 108.085588 328.3655 
L 113.865613 328.3655 
" style="fill:none;stroke:#1f77b4;stroke-width:1.5;"/>
    <path clip-path="url(#p7b641c9f84)" d="M 113.865613 328.3655 
L 120.326579 328.3655 
" style="fill:none;stroke:#1f77b4;stroke-width:1.5;"/>
    <path clip-path="url(#p7b641c9f84)" d="M 120.326579 328.3655 
L 126.427556 328.3655 
" style="fill:none;stroke:#1f77b4;stroke-width:1.5;"/>
    <path clip-path="url(#p7b641c9f84)" d="M 126.427556 328.3655 
L 132.000059 328.3655 
" style="fill:none;stroke:#1f77b4;stroke-width:1.5;"/>
    <path clip-path="url(#p7b641c9f84)" d="M 132.000059 328.3655 
L 138.547527 328.3655 
" style="fill:none;stroke:#1f77b4;stroke-width:1.5;"/>
    <path clip-path="url(#p7b641c9f84)" d="M 138.547527 328.3655 
L 144.859209 328.3655 
" style="fill:none;stroke:#1f77b4;stroke-width:1.5;"/>
    <path clip-path="url(#p7b641c9f84)" d="M 144.859209 328.3655 
L 152.183792 328.3655 
" style="fill:none;stroke:#1f77b4;stroke-width:1.5;"/>
    <path clip-path="url(#p7b641c9f84)" d="M 152.183792 328.3655 
L 157.648832 328.3655 
" style="fill:none;stroke:#1f77b4;stroke-width:1.5;"/>
    <path clip-path="url(#p7b641c9f84)" d="M 157.648832 328.3655 
L 163.397379 328.3655 
" style="fill:none;stroke:#1f77b4;stroke-width:1.5;"/>
    <path clip-path="url(#p7b641c9f84)" d="M 163.397379 328.3655 
L 168.336948 328.3655 
" style="fill:none;stroke:#1f77b4;stroke-width:1.5;"/>
    <path clip-path="url(#p7b641c9f84)" d="M 168.336948 328.3655 
L 173.044297 328.3655 
" style="fill:none;stroke:#1f77b4;stroke-width:1.5;"/>
    <path clip-path="url(#p7b641c9f84)" d="M 173.044297 328.3655 
L 178.923929 328.3655 
" style="fill:none;stroke:#1f77b4;stroke-width:1.5;"/>
    <path clip-path="url(#p7b641c9f84)" d="M 178.923929 328.3655 
L 184.816565 328.3655 
" style="fill:none;stroke:#1f77b4;stroke-width:1.5;"/>
    <path clip-path="url(#p7b641c9f84)" d="M 184.816565 328.3655 
L 190.515371 328.3655 
" style="fill:none;stroke:#1f77b4;stroke-width:1.5;"/>
    <path clip-path="url(#p7b641c9f84)" d="M 190.515371 328.3655 
L 196.161259 328.3655 
" style="fill:none;stroke:#1f77b4;stroke-width:1.5;"/>
    <path clip-path="url(#p7b641c9f84)" d="M 196.161259 328.3655 
L 202.561694 328.3655 
" style="fill:none;stroke:#1f77b4;stroke-width:1.5;"/>
    <path clip-path="url(#p7b641c9f84)" d="M 202.561694 328.3655 
L 208.001991 328.3655 
" style="fill:none;stroke:#1f77b4;stroke-width:1.5;"/>
    <path clip-path="url(#p7b641c9f84)" d="M 208.001991 328.3655 
L 214.412921 328.3655 
" style="fill:none;stroke:#1f77b4;stroke-width:1.5;"/>
    <path clip-path="url(#p7b641c9f84)" d="M 214.412921 328.3655 
L 222.015885 328.3655 
" style="fill:none;stroke:#1f77b4;stroke-width:1.5;"/>
    <path clip-path="url(#p7b641c9f84)" d="M 222.015885 328.3655 
L 224.875963 328.3655 
" style="fill:none;stroke:#1f77b4;stroke-width:1.5;"/>
    <path clip-path="url(#p7b641c9f84)" d="M 224.875963 328.3655 
L 226.155167 328.3655 
" style="fill:none;stroke:#1f77b4;stroke-width:1.5;"/>
    <path clip-path="url(#p7b641c9f84)" d="M 226.155167 328.3655 
L 226.502314 328.3655 
" style="fill:none;stroke:#1f77b4;stroke-width:1.5;"/>
    <path clip-path="url(#p7b641c9f84)" d="M 226.502314 328.3655 
L 226.598211 328.3655 
" style="fill:none;stroke:#1f77b4;stroke-width:1.5;"/>
    <path clip-path="url(#p7b641c9f84)" d="M 226.598211 328.3655 
L 226.655249 121.152981 
" style="fill:none;stroke:#1f77b4;stroke-width:1.5;"/>
    <path clip-path="url(#p7b641c9f84)" d="M 226.655249 121.152981 
L 226.70567 121.152981 
" style="fill:none;stroke:#1f77b4;stroke-width:1.5;"/>
    <path clip-path="url(#p7b641c9f84)" d="M 226.70567 121.152981 
L 226.876413 121.152981 
" style="fill:none;stroke:#1f77b4;stroke-width:1.5;"/>
    <path clip-path="url(#p7b641c9f84)" d="M 226.876413 121.152981 
L 227.532506 121.152981 
" style="fill:none;stroke:#1f77b4;stroke-width:1.5;"/>
    <path clip-path="url(#p7b641c9f84)" d="M 227.532506 121.152981 
L 234.036097 121.152981 
" style="fill:none;stroke:#1f77b4;stroke-width:1.5;"/>
    <path clip-path="url(#p7b641c9f84)" d="M 234.036097 121.152981 
L 241.037249 121.152981 
" style="fill:none;stroke:#1f77b4;stroke-width:1.5;"/>
    <path clip-path="url(#p7b641c9f84)" d="M 241.037249 121.152981 
L 247.310049 121.152981 
" style="fill:none;stroke:#1f77b4;stroke-width:1.5;"/>
    <path clip-path="url(#p7b641c9f84)" d="M 247.310049 121.152981 
L 255.480505 121.152981 
" style="fill:none;stroke:#1f77b4;stroke-width:1.5;"/>
    <path clip-path="url(#p7b641c9f84)" d="M 255.480505 121.152981 
L 262.41226 121.152981 
" style="fill:none;stroke:#1f77b4;stroke-width:1.5;"/>
    <path clip-path="url(#p7b641c9f84)" d="M 262.41226 121.152981 
L 265.783487 121.152981 
" style="fill:none;stroke:#1f77b4;stroke-width:1.5;"/>
    <path clip-path="url(#p7b641c9f84)" d="M 265.783487 121.152981 
L 266.14833 121.152981 
" style="fill:none;stroke:#1f77b4;stroke-width:1.5;"/>
    <path clip-path="url(#p7b641c9f84)" d="M 266.14833 121.152981 
L 266.331103 121.152981 
" style="fill:none;stroke:#1f77b4;stroke-width:1.5;"/>
    <path clip-path="url(#p7b641c9f84)" d="M 266.331103 121.152981 
L 266.419402 121.152981 
" style="fill:none;stroke:#1f77b4;stroke-width:1.5;"/>
    <path clip-path="url(#p7b641c9f84)" d="M 266.419402 121.152981 
L 266.467329 121.152981 
" style="fill:none;stroke:#1f77b4;stroke-width:1.5;"/>
    <path clip-path="url(#p7b641c9f84)" d="M 266.467329 121.152981 
L 266.507851 328.3655 
" style="fill:none;stroke:#1f77b4;stroke-width:1.5;"/>
    <path clip-path="url(#p7b641c9f84)" d="M 266.507851 328.3655 
L 267.317643 328.3655 
" style="fill:none;stroke:#1f77b4;stroke-width:1.5;"/>
    <path clip-path="url(#p7b641c9f84)" d="M 267.317643 328.3655 
L 268.695608 328.3655 
" style="fill:none;stroke:#1f77b4;stroke-width:1.5;"/>
    <path clip-path="url(#p7b641c9f84)" d="M 268.695608 328.3655 
L 274.781425 328.3655 
" style="fill:none;stroke:#1f77b4;stroke-width:1.5;"/>
    <path clip-path="url(#p7b641c9f84)" d="M 274.781425 328.3655 
L 280.581487 328.3655 
" style="fill:none;stroke:#1f77b4;stroke-width:1.5;"/>
    <path clip-path="url(#p7b641c9f84)" d="M 280.581487 328.3655 
L 286.687146 328.3655 
" style="fill:none;stroke:#1f77b4;stroke-width:1.5;"/>
    <path clip-path="url(#p7b641c9f84)" d="M 286.687146 328.3655 
L 291.806445 328.3655 
" style="fill:none;stroke:#1f77b4;stroke-width:1.5;"/>
    <path clip-path="url(#p7b641c9f84)" d="M 291.806445 328.3655 
L 297.558098 328.3655 
" style="fill:none;stroke:#1f77b4;stroke-width:1.5;"/>
    <path clip-path="url(#p7b641c9f84)" d="M 297.558098 328.3655 
L 303.714987 328.3655 
" style="fill:none;stroke:#1f77b4;stroke-width:1.5;"/>
    <path clip-path="url(#p7b641c9f84)" d="M 303.714987 328.3655 
L 309.413112 328.3655 
" style="fill:none;stroke:#1f77b4;stroke-width:1.5;"/>
    <path clip-path="url(#p7b641c9f84)" d="M 309.413112 328.3655 
L 317.520377 328.3655 
" style="fill:none;stroke:#1f77b4;stroke-width:1.5;"/>
    <path clip-path="url(#p7b641c9f84)" d="M 317.520377 328.3655 
L 326.239942 328.3655 
" style="fill:none;stroke:#1f77b4;stroke-width:1.5;"/>
    <path clip-path="url(#p7b641c9f84)" d="M 326.239942 328.3655 
L 333.838289 328.3655 
" style="fill:none;stroke:#1f77b4;stroke-width:1.5;"/>
    <path clip-path="url(#p7b641c9f84)" d="M 333.838289 328.3655 
L 341.503521 328.3655 
" style="fill:none;stroke:#1f77b4;stroke-width:1.5;"/>
    <path clip-path="url(#p7b641c9f84)" d="M 341.503521 328.3655 
L 348.841078 328.3655 
" style="fill:none;stroke:#1f77b4;stroke-width:1.5;"/>
    <path clip-path="url(#p7b641c9f84)" d="M 348.841078 328.3655 
L 355.660494 328.3655 
" style="fill:none;stroke:#1f77b4;stroke-width:1.5;"/>
    <path clip-path="url(#p7b641c9f84)" d="M 355.660494 328.3655 
L 362.820846 328.3655 
" style="fill:none;stroke:#1f77b4;stroke-width:1.5;"/>
    <path clip-path="url(#p7b641c9f84)" d="M 362.820846 328.3655 
L 369.515343 328.3655 
" style="fill:none;stroke:#1f77b4;stroke-width:1.5;"/>
    <path clip-path="url(#p7b641c9f84)" d="M 369.515343 328.3655 
L 377.000296 328.3655 
" style="fill:none;stroke:#1f77b4;stroke-width:1.5;"/>
    <path clip-path="url(#p7b641c9f84)" d="M 377.000296 328.3655 
L 384.674555 328.3655 
" style="fill:none;stroke:#1f77b4;stroke-width:1.5;"/>
    <path clip-path="url(#p7b641c9f84)" d="M 384.674555 328.3655 
L 391.982363 328.3655 
" style="fill:none;stroke:#1f77b4;stroke-width:1.5;"/>
    <path clip-path="url(#p7b641c9f84)" d="M 391.982363 328.3655 
L 398.714314 328.3655 
" style="fill:none;stroke:#1f77b4;stroke-width:1.5;"/>
    <path clip-path="url(#p7b641c9f84)" d="M 398.714314 328.3655 
L 405.179869 328.3655 
" style="fill:none;stroke:#1f77b4;stroke-width:1.5;"/>
    <path clip-path="url(#p7b641c9f84)" d="M 405.179869 328.3655 
L 412.554098 328.3655 
" style="fill:none;stroke:#1f77b4;stroke-width:1.5;"/>
    <path clip-path="url(#p7b641c9f84)" d="M 412.554098 328.3655 
L 419.961309 328.3655 
" style="fill:none;stroke:#1f77b4;stroke-width:1.5;"/>
    <path clip-path="url(#p7b641c9f84)" d="M 419.961309 328.3655 
L 426.078409 328.3655 
" style="fill:none;stroke:#1f77b4;stroke-width:1.5;"/>
   </g>
   <g id="LineCollection_2">
    <path clip-path="url(#p7b641c9f84)" d="M 27.146591 328.3655 
L 34.305922 328.3655 
" style="fill:none;stroke:#ff7f0e;stroke-width:1.5;"/>
    <path clip-path="url(#p7b641c9f84)" d="M 34.305922 328.3655 
L 43.054402 328.3655 
" style="fill:none;stroke:#ff7f0e;stroke-width:1.5;"/>
    <path clip-path="url(#p7b641c9f84)" d="M 43.054402 328.3655 
L 51.837302 328.3655 
" style="fill:none;stroke:#ff7f0e;stroke-width:1.5;"/>
    <path clip-path="url(#p7b641c9f84)" d="M 51.837302 328.3655 
L 60.742644 328.3655 
" style="fill:none;stroke:#ff7f0e;stroke-width:1.5;"/>
    <path clip-path="url(#p7b641c9f84)" d="M 60.742644 328.3655 
L 68.915061 328.3655 
" style="fill:none;stroke:#ff7f0e;stroke-width:1.5;"/>
    <path clip-path="url(#p7b641c9f84)" d="M 68.915061 328.3655 
L 76.201652 328.3655 
" style="fill:none;stroke:#ff7f0e;stroke-width:1.5;"/>
    <path clip-path="url(#p7b641c9f84)" d="M 76.201652 328.3655 
L 82.925605 328.3655 
" style="fill:none;stroke:#ff7f0e;stroke-width:1.5;"/>
    <path clip-path="url(#p7b641c9f84)" d="M 82.925605 328.3655 
L 89.884909 328.3655 
" style="fill:none;stroke:#ff7f0e;stroke-width:1.5;"/>
    <path clip-path="url(#p7b641c9f84)" d="M 89.884909 328.3655 
L 96.580035 328.3655 
" style="fill:none;stroke:#ff7f0e;stroke-width:1.5;"/>
    <path clip-path="url(#p7b641c9f84)" d="M 96.580035 328.3655 
L 102.889337 328.3655 
" style="fill:none;stroke:#ff7f0e;stroke-width:1.5;"/>
    <path clip-path="url(#p7b641c9f84)" d="M 102.889337 328.3655 
L 108.338783 328.3655 
" style="fill:none;stroke:#ff7f0e;stroke-width:1.5;"/>
    <path clip-path="url(#p7b641c9f84)" d="M 108.338783 328.3655 
L 114.708207 328.3655 
" style="fill:none;stroke:#ff7f0e;stroke-width:1.5;"/>
    <path clip-path="url(#p7b641c9f84)" d="M 114.708207 328.3655 
L 121.761142 328.3655 
" style="fill:none;stroke:#ff7f0e;stroke-width:1.5;"/>
    <path clip-path="url(#p7b641c9f84)" d="M 121.761142 328.3655 
L 127.749551 328.3655 
" style="fill:none;stroke:#ff7f0e;stroke-width:1.5;"/>
    <path clip-path="url(#p7b641c9f84)" d="M 127.749551 328.3655 
L 134.737853 328.3655 
" style="fill:none;stroke:#ff7f0e;stroke-width:1.5;"/>
    <path clip-path="url(#p7b641c9f84)" d="M 134.737853 328.3655 
L 142.005182 328.3655 
" style="fill:none;stroke:#ff7f0e;stroke-width:1.5;"/>
    <path clip-path="url(#p7b641c9f84)" d="M 142.005182 328.3655 
L 144.961753 328.3655 
" style="fill:none;stroke:#ff7f0e;stroke-width:1.5;"/>
    <path clip-path="url(#p7b641c9f84)" d="M 144.961753 328.3655 
L 146.688346 328.3655 
" style="fill:none;stroke:#ff7f0e;stroke-width:1.5;"/>
    <path clip-path="url(#p7b641c9f84)" d="M 146.688346 328.3655 
L 146.799491 328.3655 
" style="fill:none;stroke:#ff7f0e;stroke-width:1.5;"/>
    <path clip-path="url(#p7b641c9f84)" d="M 146.799491 328.3655 
L 146.851176 52.2555 
" style="fill:none;stroke:#ff7f0e;stroke-width:1.5;"/>
    <path clip-path="url(#p7b641c9f84)" d="M 146.851176 52.2555 
L 146.899867 52.592297 
" style="fill:none;stroke:#ff7f0e;stroke-width:1.5;"/>
    <path clip-path="url(#p7b641c9f84)" d="M 146.899867 52.592297 
L 147.09458 53.93503 
" style="fill:none;stroke:#ff7f0e;stroke-width:1.5;"/>
    <path clip-path="url(#p7b641c9f84)" d="M 147.09458 53.93503 
L 147.512672 56.796121 
" style="fill:none;stroke:#ff7f0e;stroke-width:1.5;"/>
    <path clip-path="url(#p7b641c9f84)" d="M 147.512672 56.796121 
L 148.292202 62.051192 
" style="fill:none;stroke:#ff7f0e;stroke-width:1.5;"/>
    <path clip-path="url(#p7b641c9f84)" d="M 148.292202 62.051192 
L 153.507712 94.688375 
" style="fill:none;stroke:#ff7f0e;stroke-width:1.5;"/>
    <path clip-path="url(#p7b641c9f84)" d="M 153.507712 94.688375 
L 159.237086 125.95001 
" style="fill:none;stroke:#ff7f0e;stroke-width:1.5;"/>
    <path clip-path="url(#p7b641c9f84)" d="M 159.237086 125.95001 
L 164.244958 149.829468 
" style="fill:none;stroke:#ff7f0e;stroke-width:1.5;"/>
    <path clip-path="url(#p7b641c9f84)" d="M 164.244958 149.829468 
L 170.95823 177.481813 
" style="fill:none;stroke:#ff7f0e;stroke-width:1.5;"/>
    <path clip-path="url(#p7b641c9f84)" d="M 170.95823 177.481813 
L 176.516026 197.103894 
" style="fill:none;stroke:#ff7f0e;stroke-width:1.5;"/>
    <path clip-path="url(#p7b641c9f84)" d="M 176.516026 197.103894 
L 182.962633 216.690193 
" style="fill:none;stroke:#ff7f0e;stroke-width:1.5;"/>
    <path clip-path="url(#p7b641c9f84)" d="M 182.962633 216.690193 
L 188.341397 230.776337 
" style="fill:none;stroke:#ff7f0e;stroke-width:1.5;"/>
    <path clip-path="url(#p7b641c9f84)" d="M 188.341397 230.776337 
L 195.843365 247.505839 
" style="fill:none;stroke:#ff7f0e;stroke-width:1.5;"/>
    <path clip-path="url(#p7b641c9f84)" d="M 195.843365 247.505839 
L 204.491179 263.26444 
" style="fill:none;stroke:#ff7f0e;stroke-width:1.5;"/>
    <path clip-path="url(#p7b641c9f84)" d="M 204.491179 263.26444 
L 211.659395 273.971406 
" style="fill:none;stroke:#ff7f0e;stroke-width:1.5;"/>
    <path clip-path="url(#p7b641c9f84)" d="M 211.659395 273.971406 
L 218.033019 282.003121 
" style="fill:none;stroke:#ff7f0e;stroke-width:1.5;"/>
    <path clip-path="url(#p7b641c9f84)" d="M 218.033019 282.003121 
L 224.341708 288.784516 
" style="fill:none;stroke:#ff7f0e;stroke-width:1.5;"/>
    <path clip-path="url(#p7b641c9f84)" d="M 224.341708 288.784516 
L 231.119773 294.969255 
" style="fill:none;stroke:#ff7f0e;stroke-width:1.5;"/>
    <path clip-path="url(#p7b641c9f84)" d="M 231.119773 294.969255 
L 236.818649 299.414925 
" style="fill:none;stroke:#ff7f0e;stroke-width:1.5;"/>
    <path clip-path="url(#p7b641c9f84)" d="M 236.818649 299.414925 
L 243.760623 304.038763 
" style="fill:none;stroke:#ff7f0e;stroke-width:1.5;"/>
    <path clip-path="url(#p7b641c9f84)" d="M 243.760623 304.038763 
L 249.834092 307.474201 
" style="fill:none;stroke:#ff7f0e;stroke-width:1.5;"/>
    <path clip-path="url(#p7b641c9f84)" d="M 249.834092 307.474201 
L 255.253211 310.127779 
" style="fill:none;stroke:#ff7f0e;stroke-width:1.5;"/>
    <path clip-path="url(#p7b641c9f84)" d="M 255.253211 310.127779 
L 260.776334 312.485758 
" style="fill:none;stroke:#ff7f0e;stroke-width:1.5;"/>
    <path clip-path="url(#p7b641c9f84)" d="M 260.776334 312.485758 
L 266.783459 314.705608 
" style="fill:none;stroke:#ff7f0e;stroke-width:1.5;"/>
    <path clip-path="url(#p7b641c9f84)" d="M 266.783459 314.705608 
L 271.528571 316.237479 
" style="fill:none;stroke:#ff7f0e;stroke-width:1.5;"/>
    <path clip-path="url(#p7b641c9f84)" d="M 271.528571 316.237479 
L 277.062384 317.808356 
" style="fill:none;stroke:#ff7f0e;stroke-width:1.5;"/>
    <path clip-path="url(#p7b641c9f84)" d="M 277.062384 317.808356 
L 283.144523 319.301213 
" style="fill:none;stroke:#ff7f0e;stroke-width:1.5;"/>
    <path clip-path="url(#p7b641c9f84)" d="M 283.144523 319.301213 
L 288.325813 320.405229 
" style="fill:none;stroke:#ff7f0e;stroke-width:1.5;"/>
    <path clip-path="url(#p7b641c9f84)" d="M 288.325813 320.405229 
L 294.68788 321.578659 
" style="fill:none;stroke:#ff7f0e;stroke-width:1.5;"/>
    <path clip-path="url(#p7b641c9f84)" d="M 294.68788 321.578659 
L 301.74884 322.679603 
" style="fill:none;stroke:#ff7f0e;stroke-width:1.5;"/>
    <path clip-path="url(#p7b641c9f84)" d="M 301.74884 322.679603 
L 308.699586 323.588776 
" style="fill:none;stroke:#ff7f0e;stroke-width:1.5;"/>
    <path clip-path="url(#p7b641c9f84)" d="M 308.699586 323.588776 
L 316.935301 324.47977 
" style="fill:none;stroke:#ff7f0e;stroke-width:1.5;"/>
    <path clip-path="url(#p7b641c9f84)" d="M 316.935301 324.47977 
L 324.153241 325.122888 
" style="fill:none;stroke:#ff7f0e;stroke-width:1.5;"/>
    <path clip-path="url(#p7b641c9f84)" d="M 324.153241 325.122888 
L 330.504693 325.600149 
" style="fill:none;stroke:#ff7f0e;stroke-width:1.5;"/>
    <path clip-path="url(#p7b641c9f84)" d="M 330.504693 325.600149 
L 336.61764 325.993023 
" style="fill:none;stroke:#ff7f0e;stroke-width:1.5;"/>
    <path clip-path="url(#p7b641c9f84)" d="M 336.61764 325.993023 
L 342.135112 326.299471 
" style="fill:none;stroke:#ff7f0e;stroke-width:1.5;"/>
    <path clip-path="url(#p7b641c9f84)" d="M 342.135112 326.299471 
L 347.563217 326.5623 
" style="fill:none;stroke:#ff7f0e;stroke-width:1.5;"/>
    <path clip-path="url(#p7b641c9f84)" d="M 347.563217 326.5623 
L 353.522764 326.812521 
" style="fill:none;stroke:#ff7f0e;stroke-width:1.5;"/>
    <path clip-path="url(#p7b641c9f84)" d="M 353.522764 326.812521 
L 358.710144 327.00188 
" style="fill:none;stroke:#ff7f0e;stroke-width:1.5;"/>
    <path clip-path="url(#p7b641c9f84)" d="M 358.710144 327.00188 
L 364.362097 327.182012 
" style="fill:none;stroke:#ff7f0e;stroke-width:1.5;"/>
    <path clip-path="url(#p7b641c9f84)" d="M 364.362097 327.182012 
L 371.008796 327.363645 
" style="fill:none;stroke:#ff7f0e;stroke-width:1.5;"/>
    <path clip-path="url(#p7b641c9f84)" d="M 371.008796 327.363645 
L 376.670815 327.496208 
" style="fill:none;stroke:#ff7f0e;stroke-width:1.5;"/>
    <path clip-path="url(#p7b641c9f84)" d="M 376.670815 327.496208 
L 381.72862 327.599719 
" style="fill:none;stroke:#ff7f0e;stroke-width:1.5;"/>
    <path clip-path="url(#p7b641c9f84)" d="M 381.72862 327.599719 
L 387.169223 327.697347 
" style="fill:none;stroke:#ff7f0e;stroke-width:1.5;"/>
    <path clip-path="url(#p7b641c9f84)" d="M 387.169223 327.697347 
L 391.591776 327.767461 
" style="fill:none;stroke:#ff7f0e;stroke-width:1.5;"/>
    <path clip-path="url(#p7b641c9f84)" d="M 391.591776 327.767461 
L 396.526622 327.837046 
" style="fill:none;stroke:#ff7f0e;stroke-width:1.5;"/>
    <path clip-path="url(#p7b641c9f84)" d="M 396.526622 327.837046 
L 401.479905 327.898751 
" style="fill:none;stroke:#ff7f0e;stroke-width:1.5;"/>
    <path clip-path="url(#p7b641c9f84)" d="M 401.479905 327.898751 
L 405.739441 327.946019 
" style="fill:none;stroke:#ff7f0e;stroke-width:1.5;"/>
    <path clip-path="url(#p7b641c9f84)" d="M 405.739441 327.946019 
L 410.300784 327.991342 
" style="fill:none;stroke:#ff7f0e;stroke-width:1.5;"/>
    <path clip-path="url(#p7b641c9f84)" d="M 410.300784 327.991342 
L 415.796148 328.03949 
" style="fill:none;stroke:#ff7f0e;stroke-width:1.5;"/>
    <path clip-path="url(#p7b641c9f84)" d="M 415.796148 328.03949 
L 420.483265 328.075629 
" style="fill:none;stroke:#ff7f0e;stroke-width:1.5;"/>
    <path clip-path="url(#p7b641c9f84)" d="M 420.483265 328.075629 
L 426.078409 328.113562 
" style="fill:none;stroke:#ff7f0e;stroke-width:1.5;"/>
   </g>
   <g id="patch_3">
    <path d="M 226.6125 342.171 
L 226.6125 38.45 
" style="fill:none;stroke:#000000;stroke-linecap:square;stroke-linejoin:miter;stroke-width:0.8;"/>
   </g>
   <g id="patch_4">
    <path d="M 446.025 342.171 
L 446.025 38.45 
" style="fill:none;"/>
   </g>
   <g id="patch_5">
    <path d="M 7.2 328.3655 
L 446.025 328.3655 
" style="fill:none;stroke:#000000;stroke-linecap:square;stroke-linejoin:miter;stroke-width:0.8;"/>
   </g>
   <g id="patch_6">
    <path d="M 7.2 38.45 
L 446.025 38.45 
" style="fill:none;"/>
   </g>
  </g>
 </g>
 <defs>
  <clipPath id="p7b641c9f84">
   <rect height="303.721" width="438.825" x="7.2" y="38.45"/>
  </clipPath>
 </defs>
</svg>